<?xml version="1.0" encoding="UTF-8"?>
<svg id="Layer_2" data-name="Layer 2" xmlns="http://www.w3.org/2000/svg" viewBox="0 0 894.9 489.25">
  <defs>
    <style>
      .cls-1 {
        fill: #35352b;
      }

      .cls-1, .cls-2, .cls-3, .cls-4, .cls-5, .cls-6, .cls-7, .cls-8, .cls-9, .cls-10, .cls-11, .cls-12, .cls-13, .cls-14, .cls-15, .cls-16, .cls-17 {
        stroke-width: 0px;
      }

      .cls-2 {
        fill: #7d4f37;
      }

      .cls-3 {
        fill: #300f08;
      }

      .cls-4 {
        fill: #d83d00;
      }

      .cls-5 {
        fill: #e94c01;
      }

      .cls-6 {
        fill: #111103;
      }

      .cls-7 {
        fill: #512718;
        opacity: .11;
      }

      .cls-8, .cls-13 {
        fill: #cda98f;
      }

      .cls-9 {
        fill: #3f1b15;
      }

      .cls-10 {
        fill: #100b08;
      }

      .cls-11 {
        fill: #b59885;
      }

      .cls-12 {
        fill: #986b58;
      }

      .cls-13 {
        opacity: .26;
      }

      .cls-14 {
        fill: #773118;
      }

      .cls-15 {
        fill: #ed612f;
      }

      .cls-16 {
        fill: #bf3100;
      }

      .cls-17 {
        fill: #511c0e;
      }
    </style>
  </defs>
  <g id="pose_3" data-name="pose 3">
    <g>
      <path class="cls-14" d="M500.1,443.3s-1.53,9.71,2.26,14.47c3.78,4.76,17.96,14.04,18.99,23.22s-19.75,10.56-35.05,4.88c-15.3-5.69-16.41-21.53-20.04-24.62-3.63-3.09,3.61-33.12,16.59-35.78,12.98-2.66,21.16,7.5,17.27,17.83Z"/>
      <g>
        <path class="cls-16" d="M361.37,88.39s-89.73-1.05-97.65,38.77c-7.92,39.83,34.55,95.04,28.53,116.59-6.02,21.55-67.2,52.18-70.06,68.5-2.86,16.32-2.94,104.27-4.37,109.54-1.44,5.27-3.22,20.46,12.33,29.07,15.55,8.61,36.63,14.4,39.56,8.2,2.94-6.2-5.17-20.52-18.73-30.94s4.1-85.84,18.01-90.44c13.92-4.6,69.61-7.12,102.16-50.03,32.55-42.91,22.83-102.49,31.15-140.73,8.32-38.24-3.6-55.52-40.92-58.53Z"/>
        <path class="cls-17" d="M254.87,334.25c1.57-8.57-1.21-12.46-7.52-12.71-6.31-.24,8.78-10.93,6.94-20.21-.79-3.99-6.58-4.71-12.92-4.25-10.52,5.16-18.3,10.17-19.18,15.17-2.86,16.32-2.94,104.27-4.37,109.54-1.44,5.28-3.22,20.46,12.33,29.08,15.55,8.61,36.63,14.4,39.56,8.2,2.94-6.2-5.17-20.52-18.73-30.94-13.56-10.42,4.1-85.84,18.01-90.44.37-.12.79-.24,1.21-.36-6.88-3.02-16.62,3.99-15.32-3.06Z"/>
        <g>
          <path class="cls-3" d="M248.92,447.07s8.66,5.26,7.2,13.77c0,0,8.35-9.52-7.2-13.77Z"/>
          <path class="cls-3" d="M256.88,447.52s8.66,5.26,7.2,13.77c0,0,8.35-9.52-7.2-13.77Z"/>
        </g>
      </g>
      <path class="cls-16" d="M775.14,53.6s39.49-27.19,63.05-27.66c0,0-22.56,34.16-23.91,48.64-1.35,14.48-38.5-13.95-39.15-20.99Z"/>
      <path class="cls-8" d="M811.59,82.04c1.23-13.18,20.02-42.66,23.39-47.85-9.83,5.27-28.06,29.09-29.85,38.59-1.07,5.67,1.75,10.02,4.47,12.77,1.11-.6,1.82-1.73,1.99-3.51Z"/>
      <path class="cls-4" d="M296.6,284.6s-23.04,37.16-34.02,47.52c-10.98,10.36-3.14,19.44,8.77,32.19,11.91,12.74,48.86,72.05,48.86,72.05l24.84-16.47s-44-66.88-43.22-78.18c.78-11.3,60.66-27.14,76.85-79.8,16.19-52.67-83.56-4.77-82.07,22.69Z"/>
      <path class="cls-16" d="M613.17,316.09c5.74-2.03,11.99-4,17.98-6.44-9.98-22.81-20.19-50.06-16.68-59.29,6.41-16.87,22.84-33.39,25.23-59.31,2.39-25.92-56.55-42.36-65.64-16.38,0,0-30.26,52.64-27.25,64.06,2.14,8.1,32.56,55.63,50.06,82.58,5.44-1.59,10.87-3.29,16.3-5.22Z"/>
      <path class="cls-4" d="M241.56,171.5c-3.12-19.33,3.35-38.93,16.23-53.67,16.1-18.43,38.8-35.71,86.86-41.05,77.8-8.64,138.12,12.17,201.82,2.59,59.08-8.88,72.83,12.03,89.25,12.03s13.83,90.76,18.15,115.83c4.32,25.07-63.1,37.17-76.93,47.54s-108.91-25.93-181.52-28.53c-62.4-2.23-144.59,2.57-153.85-54.74Z"/>
      <path class="cls-8" d="M524.55,208.69c-37.09,5.34-121.74-9.74-121.74-9.74l13.4-1.83-65.93-17.28c-14.1.47,1.02,30.39,10.41,46.82,12.64.39,25.2.56,37.05.99,50.7,1.81,112.74,19.17,150.04,26.49-13.74-23.69-7.21-43.25-23.23-45.45Z"/>
      <path class="cls-4" d="M546.16,188s-53.55,36.45-58.53,62.81c-4.98,26.36.97,85.31-5.5,112.44-6.47,27.12-15.06,88.93-15.06,88.93,0,0,22.58.86,26.72,2.18,4.14,1.33,8.98-56.42,22.25-103.97,13.27-47.55,18.94-90.53,29.74-99.71,10.8-9.18,27.58-58.63.38-62.68Z"/>
      <path class="cls-4" d="M621.02,105.23l3.28-15.05s41.66.35,71.49-12.61c29.82-12.97,43.22-21.61,71.75-17.29,28.53,4.32,48.41,39.33,43.22,70.88-5.19,31.55-77.36,37.95-99.41,57.01-22.04,19.06-60.14,57.1-101.17,52.99-41.02-4.11-7.31-103.52,10.84-135.93Z"/>
      <path class="cls-8" d="M652.62,177.27l18.9-3.4s-28.33,20.72-34.89,25.09h17.45s-33.46,28.32-57.12,35.29c3.06,3.86,7.28,6.35,13.01,6.93,41.03,4.11,79.13-33.93,101.17-52.99,10.51-9.09,32.41-15.3,53.02-22.73-35.91-5.83-85.47-22.03-111.53,11.82Z"/>
      <path class="cls-11" d="M659.16,169.65c12.97-1.21,27.5-2.17,33.89-1.2l-13.33,11.37,29.08-2.58-17.97,6.54s11.99-.84,25.31.36c11.61-7.01,29.93-12.43,47.35-18.71-32.84-5.34-77.08-19.31-104.34,4.22Z"/>
      <path class="cls-5" d="M735.57,45.96s-49.96,14.46-54.04,48.19c-4.08,33.73,11.54,70.15,37.15,78.74,25.61,8.59,49.33,5.01,64.64,14.77,15.31,9.76,49.91,13.29,64.96,6.26,15.05-7.04,26.66-16.05,25.88-19.21s-20.41-19.28-36.76-34.8c-16.34-15.52-16.65-23.36-11.67-43.29,4.98-19.93-31.12-71.56-90.16-50.65Z"/>
      <path class="cls-17" d="M678.79,440.36s29.69-4.1,35.96,8.89c6.28,12.99-17.25,17.23-34.7,15.59s-28.4-6.66-25.93-17.93c2.48-11.26,21.56-9.04,24.66-6.55Z"/>
      <path class="cls-8" d="M764.22,140.77c-44.27,5.65-69.08-8.17-82.38-21.5,3.83,24.96,17.43,47.17,36.7,53.63,25.61,8.59,49.33,5.01,64.64,14.77,15.31,9.76,49.91,13.29,64.96,6.26,6.04-2.82,11.51-5.96,15.86-8.92-11.99-9.97-62.7-48.97-99.77-44.24Z"/>
      <path class="cls-2" d="M769.74,132.34s18.93-5.72,21.25-4.21c2.32,1.51,3.71,8.48,7.09,9.67,3.37,1.19,4.32,3.86,3.03,3.99s-1.16-2.65-3.08-2.3c-1.92.35-23.71,7.87-28.28-7.15Z"/>
      <path class="cls-1" d="M790.28,134.72c.34,3.41-2.32,6.47-5.93,6.82s-6.81-2.12-7.15-5.54c-.34-3.41,2.32-6.47,5.93-6.82s6.81,2.12,7.15,5.54Z"/>
      <path class="cls-6" d="M786.67,135.79c-.38,2.38-1.66,4.16-2.86,3.97s-1.88-2.28-1.5-4.66c.38-2.38,1.66-4.16,2.86-3.97,1.21.19,1.88,2.28,1.5,4.66Z"/>
      <path class="cls-8" d="M778.62,135.43c.1,1.04-.66,1.96-1.7,2.07-1.04.1-1.96-.66-2.07-1.7-.1-1.04.66-1.96,1.7-2.07,1.04-.1,1.96.66,2.07,1.7Z"/>
      <path class="cls-16" d="M764.78,113.44c-3.61-1.1-3.52-6.26.08-7.39,6.78-2.13,18.28-5.39,20.74-3.82,3.54,2.26,9.1,7.41,6.88,9.75-1.6,1.69-18.91,4.16-27.7,1.47Z"/>
      <g>
        <path class="cls-16" d="M693.65,90.08s-11.17-18.4-4.43-38.24C699.49,21.62,733.47.25,736.02,0s18.58,38.56,20.1,45.36c1.53,6.79-48.94,25.33-62.47,44.72Z"/>
        <path class="cls-5" d="M696.59,88.5s-8.24-14-3.39-34.38c4.85-20.38,38.33-49.49,40.88-49.74s19.47,35.46,21,42.25c1.53,6.79-44.96,22.48-58.49,41.87Z"/>
        <path class="cls-8" d="M708.11,42.95c-6.68,12.53-6.66,27.19-6.1,34.56,14.21-10.26,34.63-19.04,45.16-25.28-3.29-17.63-14.34-39.4-14.34-39.4,0,0-15.37,12.59-24.72,30.12Z"/>
        <path class="cls-5" d="M702.09,78.31s4.37-17.37,18.85-27.43l-3.32,9.28,7.33-10.98-1.38,5.35s4.33-8.21,23.6-2.31c0,0-32.95,18.89-45.08,26.08Z"/>
      </g>
      <path class="cls-7" d="M375.46,131.3c9.77-31.76,29.92-44.7,54.17-54.69-23.34-1.48-47.69-3.99-85.1.17-48.06,5.34-70.76,22.62-86.86,41.05-12.88,14.75-19.35,34.34-16.23,53.67,9.26,57.31,91.45,52.52,153.85,54.74,16.51.59,34.18,2.93,51.79,6.06-35.74-20.1-85.21-56.84-71.62-101.01Z"/>
      <path class="cls-4" d="M279.96,105.49s-61.82,37.88-33.86,90.5,66.26,59.38,55.42,78.05c-10.84,18.67,53.72,37.6,82.28-11.68,28.56-49.28-14.38-69.19-20.55-103.66-6.17-34.47-40.89-79.13-83.29-53.21Z"/>
      <path class="cls-7" d="M363.25,158.7c-6.17-34.47-42.59-78.26-85-52.34,0,0-59.23,38.25-31.28,90.86.26.48.51.94.77,1.42-3.77-14.91,10.89-33.07,25.17-40.18,33.1-16.47,66.49,11.94,76.48,45.65,5.84,19.73,27.47,39.21,33.6,59.53.26-.44.55-.84.81-1.28,28.56-49.28-14.38-69.19-20.55-103.66Z"/>
      <path class="cls-7" d="M560.01,121.31s-42.03,13.83-54.34,49.32c0,0,6.05-12.59,37.6-24.66,0,0-25.07,19.12-32.41,42.2l30.25-13.22s-29.82,13.43-37.17,24.01c0,0,3.89-18.82,13.4-33.51l-21.45,18.36s2.19-50.02,64.12-62.5Z"/>
      <path class="cls-4" d="M316.53,126.14l-8.18,14.29-7.55-26.49c-13.88,3.84-16.11,18.52-16.11,18.52,7.62-11.31,13.1-10.86,13.1-10.86-.69,8.73,9.82,26.69,9.82,26.69l10.08-14.11c7.28,5.61,29.45,44.07,29.45,44.07-16.6-41.53-30.6-52.1-30.6-52.1Z"/>
      <path class="cls-4" d="M696.48,103.46s19.46-7.45,35.75-7.43l-10.9,15s32.59-2.69,43.89.03c0,0-32.42-2.63-47.66,4.69,0,0-.74-6.97,5.85-13.32,0,0-14.25-2.5-26.93,1.02Z"/>
      <path class="cls-14" d="M524.14,321.01c-9.71-12.5-16.84-14.26-23.19-25.65-3.3-5.91-9.3-6.09-15.01-4.42-.04,26.09.76,55.46-3.28,72.41-6.47,27.12-15.71,89.13-15.71,89.13,0,0,23.23.66,27.37,1.99,4.14,1.33,8.98-56.42,22.25-103.97,2.83-10.13,5.31-20.05,7.57-29.49Z"/>
      <path class="cls-14" d="M317.91,423.19s.95,16.13,8.02,29.44c7.06,13.31,21.46,9.3,30.55,9.03s7.78-16.1,3.42-27.62c-4.36-11.52-31.31-29.74-41.99-10.85Z"/>
      <path class="cls-14" d="M313.59,317.06c-15.37,6.45-14.42.11-18.57-11.49-1.38-3.86-5.68-3.77-10.78-1.95-7.24,10.78-16.04,23.14-21.67,28.46-10.98,10.36-3.14,19.44,8.77,32.19,11.91,12.74,48.85,72.05,48.85,72.05l24.84-16.47s-44-66.88-43.22-78.18c.4-5.9,16.92-13.04,34.91-26.01-5.58-1.43-14.14-2.38-23.13,1.39Z"/>
      <path class="cls-12" d="M757.46,175.84s11.09-.87,22.25,4.97c11.17,5.85,31.51,16.22,46.74,16.46,0,0-6.38.4-11.49-.26-5.11-.66-22.32-5.75-28.49-9.92s-19.6-9.36-21.75-8.06-9.38.71-7.26-3.19Z"/>
      <g>
        <path class="cls-12" d="M821.4,173.9c.07.76-1.42,1.52-3.33,1.71-1.92.19-3.53-.27-3.6-1.03-.07-.76,1.42-1.52,3.33-1.71s3.53.27,3.6,1.03Z"/>
        <path class="cls-12" d="M829.31,179.78c.1,1.04-1.07,2-2.61,2.15-1.54.15-2.88-.56-2.98-1.6-.1-1.04,1.07-2,2.61-2.15,1.54-.15,2.88.56,2.98,1.6Z"/>
        <path class="cls-12" d="M816.79,178.32c.04.43-.86.88-2.02.99-1.16.11-2.13-.15-2.17-.58s.86-.88,2.02-.99c1.16-.11,2.13.15,2.17.58Z"/>
        <path class="cls-12" d="M812.01,172.79c.06.62-.97,1.24-2.31,1.37s-2.47-.27-2.53-.89c-.06-.62.97-1.24,2.31-1.37s2.47.27,2.53.89Z"/>
        <path class="cls-12" d="M828.5,171.61c.09.87-1.1,1.7-2.64,1.85-1.54.15-2.87-.43-2.95-1.3-.09-.87,1.1-1.7,2.64-1.85s2.87.43,2.95,1.3Z"/>
        <path class="cls-12" d="M837.84,177.09c.09.89-.78,1.71-1.94,1.82-1.16.11-2.17-.52-2.26-1.41-.09-.89.78-1.71,1.94-1.82,1.16-.11,2.17.52,2.26,1.41Z"/>
        <path class="cls-12" d="M827.07,185.72c.07.76-1.01,1.48-2.42,1.62-1.41.14-2.61-.36-2.69-1.12-.07-.76,1.01-1.48,2.42-1.62s2.61.36,2.69,1.12Z"/>
      </g>
      <g>
        <g>
          <path class="cls-4" d="M243.92,127.86s-34.37,13.08-94.04,37.14C90.2,189.05,13.64,271.73,1.82,325.88c-11.83,54.15,46.1,52.65,85.9,38.57,77.21-27.32,90.4-96.97,116.89-122.29,26.5-25.32,39.24-91.12,54.78-101.2,0,0,3.27-17.33-15.48-13.1Z"/>
          <path class="cls-8" d="M105.02,346.23c-5.99-1.4,13.33-24.68,8.75-24.88-4.58-.2-34.38,8.39-45.9,10.52s.26-25.18,7.74-42.79c7.48-17.62-25.27-12.63-37.16-14.46-3.52-.54-3.58-7.03-1.94-15.86-17.63,23.16-30.63,46.76-34.95,66.56-11.83,54.15,46.1,52.65,85.9,38.57,19.45-6.88,34.83-16.45,47.39-27.32-13.76,5.47-27.11,10.3-29.83,9.67Z"/>
          <path class="cls-7" d="M251.39,127.16c-19.29,13.19-41.72,41.3-62.13,86.59-24.7,54.81-74.71,96.68-114.81,116.47-24.29,11.99-44.95,15.88-54.13,9.61-10.54-7.2-13.56-18.94-13.6-29.95-2.15,5.46-3.81,10.74-4.91,15.77-2.55,11.65-1.84,20.71,1.19,27.64,11.08,25.27,53.47,21.98,84.7,10.93,77.21-27.32,90.4-96.97,116.89-122.29,26.5-25.32,39.24-91.12,54.78-101.2,0,0,2.24-12.08-7.99-13.57Z"/>
        </g>
        <path class="cls-15" d="M183.29,168.28s-66.61,11.87-93.33,51.25l26.98-8.59s-38.41,16.34-48.06,38.64c0,0,40.11-35.45,66.03-41.47,0,0-6.26-5.42-26.01-.81,0,0,38.78-31.7,74.39-39.02Z"/>
      </g>
      <path class="cls-15" d="M531.12,216.57c-8.82,4.95-25.26,15.05-28.96,23.36l7.93-2.99c-3.46,2.16-10.39,10.02-15.57,38.7,0,0,7.03-34.74,29.8-43.12l-9.92-1.24s9.81-9.64,16.72-14.71Z"/>
      <path class="cls-8" d="M699.69,115.79l6.84,2.07-13.33-14.48c-.57-1.29-1.1-2.59-1.62-3.91l7.17,3.2c-7.46-8.42-8.91-32.77-8.91-32.77l-4.86,2.96-22.21,13.51-9.94,21.72,20.31-6.16-20.31,18.1v19.07l20.2-16.8c-3.06,2.55-23.02,19.43-25.82,28.01,0,0,27.93-6.9,55.16,10.96,8.71,5.72,15.93-4.96,21.11-18.18-9.43-7.72-17.48-16.97-23.79-27.31Z"/>
      <g>
        <path class="cls-9" d="M337.31,446.17s6.1,8.07,1.8,15.07c0,0,10.95-5.21-1.8-15.07Z"/>
        <path class="cls-9" d="M348.13,446.08s6.1,8.07,1.8,15.07c0,0,10.95-5.21-1.8-15.07Z"/>
        <path class="cls-9" d="M354.35,441.56s8.99,4.63,8.15,12.8c0,0,7.61-9.44-8.15-12.8Z"/>
      </g>
      <g>
        <path class="cls-9" d="M493.97,472.74s5.71,8.34,1.09,15.14c0,0,11.18-4.7-1.09-15.14Z"/>
        <path class="cls-9" d="M504.78,473.17s5.71,8.34,1.09,15.14c0,0,11.18-4.7-1.09-15.14Z"/>
        <path class="cls-9" d="M511.21,468.94s8.76,5.04,7.55,13.17c0,0,8.04-9.08-7.55-13.17Z"/>
      </g>
      <path class="cls-17" d="M583.34,300.34s46.12,86.75,49.26,110.94c3.13,24.19,26.28,43.74,26.28,43.74l26.01-1.17-57.5-153s-21.6-8.62-44.04-.51Z"/>
      <g>
        <path class="cls-3" d="M706.49,461.35c3.12-7.92-4.59-14.63-4.59-14.63l4.59,14.63Z"/>
        <path class="cls-3" d="M707.92,443.37l7.95,13.08c1.2-8.35-7.95-13.08-7.95-13.08Z"/>
      </g>
      <path class="cls-16" d="M568.68,228.76l-25.53,24.99s9.92-24.65,25.53-24.99Z"/>
      <g>
        <g>
          <path class="cls-12" d="M869.72,174.32l-.62-.2c3.28-10.16,18.83-9.94,18.99-9.93v.65c-.17,0-15.25-.21-18.38,9.49Z"/>
          <path class="cls-12" d="M871.7,173.45l-.53-.37c6.03-8.81,20.89-4.16,21.04-4.12l-.2.62c-.15-.05-14.54-4.55-20.3,3.86Z"/>
          <path class="cls-12" d="M894.56,174.1c-.13-.08-12.97-7.99-20.63-1.26l-.43-.49c8.02-7.05,21.27,1.12,21.4,1.2l-.34.55Z"/>
        </g>
        <path class="cls-10" d="M868.24,168.57s-11.44,1.19-14.07,5.36,5.3,7.51,9.9,7.93c4.6.42,8.54-1.19,11.88-4.93,3.34-3.74-5.35-8.7-7.71-8.36Z"/>
        <path class="cls-13" d="M863.83,174.23c0,.65-1.6,1.18-3.57,1.18s-3.57-.53-3.57-1.18,1.6-1.18,3.57-1.18,3.57.53,3.57,1.18Z"/>
        <path class="cls-12" d="M853.95,177.6c-3.21.1-15.35,1.08-18.21,9.92l.62.2c2.97-9.19,16.65-9.48,18.2-9.49-.21-.21-.42-.42-.61-.64Z"/>
        <path class="cls-12" d="M855.24,178.85c-3.72.72-14.63,3.57-16.12,12.33l.64.11c1.5-8.84,13.25-11.41,16.16-11.91-.24-.17-.46-.35-.68-.53Z"/>
        <path class="cls-12" d="M855.95,179.4c-4.45,1.63-12.61,5.66-13.09,13.43l.65.04c.47-7.66,8.9-11.56,13.1-13.03-.23-.14-.45-.29-.66-.44Z"/>
      </g>
    </g>
  </g>
</svg>