<?xml version="1.0" encoding="UTF-8"?>
<svg id="Layer_2" data-name="Layer 2" xmlns="http://www.w3.org/2000/svg" viewBox="0 0 911.14 480.28">
  <defs>
    <style>
      .cls-1 {
        fill: #35352b;
      }

      .cls-1, .cls-2, .cls-3, .cls-4, .cls-5, .cls-6, .cls-7, .cls-8, .cls-9, .cls-10, .cls-11, .cls-12, .cls-13, .cls-14, .cls-15, .cls-16, .cls-17 {
        stroke-width: 0px;
      }

      .cls-2 {
        fill: #7d4f37;
      }

      .cls-3 {
        fill: #300f08;
      }

      .cls-4 {
        fill: #d83d00;
      }

      .cls-5 {
        fill: #e94c01;
      }

      .cls-6 {
        fill: #111103;
      }

      .cls-7 {
        fill: #512718;
        opacity: .11;
      }

      .cls-8, .cls-13 {
        fill: #cda98f;
      }

      .cls-9 {
        fill: #3f1b15;
      }

      .cls-10 {
        fill: #100b08;
      }

      .cls-11 {
        fill: #b59885;
      }

      .cls-12 {
        fill: #986b58;
      }

      .cls-13 {
        opacity: .26;
      }

      .cls-14 {
        fill: #773118;
      }

      .cls-15 {
        fill: #ed612f;
      }

      .cls-16 {
        fill: #bf3100;
      }

      .cls-17 {
        fill: #511c0e;
      }
    </style>
  </defs>
  <g id="pose_1" data-name="pose 1">
    <g>
      <g>
        <path class="cls-12" d="M885.96,174.24l-.62-.2c3.28-10.16,18.83-9.94,18.99-9.93v.65c-.17,0-15.25-.21-18.38,9.49Z"/>
        <path class="cls-12" d="M887.94,173.37l-.53-.37c6.03-8.81,20.89-4.16,21.04-4.12l-.2.62c-.14-.05-14.54-4.55-20.3,3.86Z"/>
        <path class="cls-12" d="M910.8,174.03c-.13-.08-12.97-7.99-20.63-1.26l-.43-.49c8.02-7.05,21.27,1.12,21.4,1.2l-.34.55Z"/>
        <g>
          <g>
            <path class="cls-4" d="M262.59,127.33s-35.43,9.84-97.08,28.26C103.86,174.02,19.97,249.25,3.18,302.07c-16.79,52.82,41.02,56.7,81.95,46.37,79.41-20.04,98.99-88.18,127.72-110.93s47.52-87.09,63.93-95.69c0,0,4.86-16.95-14.2-14.48Z"/>
            <path class="cls-8" d="M104.06,331.89c-5.83-1.94,15.56-23.34,11.02-23.96-4.54-.63-35.01,5.16-46.68,6.22-11.67,1.06,2.59-25.04,11.67-41.89,9.08-16.85-23.99-14.92-35.66-17.84-3.46-.87-2.92-7.33-.46-15.97-19.7,21.43-34.83,43.72-40.97,63.03-16.79,52.82,41.02,56.7,81.95,46.37,20-5.05,36.2-13.15,49.71-22.81-14.21,4.17-27.94,7.74-30.59,6.86Z"/>
            <path class="cls-7" d="M270.09,127.32c-20.43,11.35-45.37,37.26-69.88,80.46-29.67,52.28-83.35,89.34-125.11,105.33-25.3,9.69-46.23,11.65-54.79,4.55-9.83-8.14-11.75-20.12-10.77-31.08-2.65,5.23-4.79,10.34-6.35,15.25-3.61,11.37-3.76,20.45-1.37,27.63,8.7,26.19,51.2,26.84,83.33,18.73,79.41-20.04,98.99-88.18,127.72-110.93,28.73-22.76,47.52-87.09,63.93-95.69,0,0,3.34-11.82-6.7-14.25Z"/>
          </g>
          <path class="cls-16" d="M788.82,44.3s39.49-27.19,63.05-27.66c0,0-22.56,34.16-23.91,48.64-1.35,14.48-38.5-13.95-39.15-20.99Z"/>
          <path class="cls-8" d="M827.78,65.05c1.23-13.18,20.02-42.66,23.39-47.85-9.83,5.27-28.06,29.09-29.85,38.59-1.07,5.68,1.75,10.02,4.47,12.77,1.11-.6,1.82-1.73,1.99-3.51Z"/>
          <path class="cls-4" d="M287.53,259.1s-34.22,27.22-48.05,33.27-9.51,17.25-2.59,33.26c6.92,16.01,21.71,84.3,21.71,84.3l28.94-7.13s-18.88-77.8-14.34-88.17,66.26-5.1,99.25-49.23c33-44.13-77.06-32.66-84.92-6.3Z"/>
          <path class="cls-4" d="M260.88,396.81s-4.54,15.51-2.38,30.42,17.07,15.99,25.72,18.8c8.64,2.81,12.75-12.53,12.53-24.85s-19.45-38.55-35.87-24.37Z"/>
          <path class="cls-16" d="M580.9,188.35s-6.92,60.51,0,70.02,92.49,70.88,92.49,70.88l8.64,43.22s-18.15,34.58-6.05,48.41c12.1,13.83,26.8,5.19,32.85-18.15,6.05-23.34,0-83.85,0-83.85,0,0-63.49-57.05-64.16-75.2-.67-18.15,7.59-39.76,0-64.83-7.59-25.07-65.5-18.15-63.77,9.51Z"/>
          <path class="cls-16" d="M372.41,87.46s-57.55,17.31-52.12,55.56,54.71,92.37,56.01,113.61c1.3,21.24-65.48,59.49-62.89,75.05s31.06,94.65,31.42,99.84c.35,5.19,3.59,19.39,21.1,22.34,17.5,2.95,39.32,1.65,40.08-4.83.76-6.48-11.55-16.86-27.76-22.04-16.21-5.19-23.99-78.44-12.32-86.87,11.67-8.43,63.53-27.88,80.39-76.5,16.86-48.62-11.67-99.19-16.21-136.14-4.54-36.95-21.42-48.81-57.7-40Z"/>
          <path class="cls-4" d="M259.38,171.5c-3.12-19.33,3.35-38.93,16.23-53.67,16.1-18.43,38.8-35.71,86.86-41.05,77.8-8.64,138.12,12.17,201.82,2.59,59.08-8.88,72.83,12.03,89.25,12.03s13.83,90.76,18.15,115.83c4.32,25.07-63.1,37.17-76.93,47.54-13.83,10.37-108.91-25.93-181.52-28.53-62.4-2.23-144.59,2.57-153.85-54.74Z"/>
          <path class="cls-8" d="M542.36,208.69c-37.09,5.34-121.74-9.74-121.74-9.74l13.4-1.83-65.93-17.28c-14.1.47,1.02,30.39,10.41,46.82,12.64.39,25.2.56,37.05.99,50.7,1.81,112.33,20.04,149.63,27.36-13.74-23.69-6.81-44.12-22.82-46.32Z"/>
          <path class="cls-4" d="M557.8,188.21s-44.73,46.85-44.08,73.67c.65,26.82,18.8,83.22,18.15,111.1-.65,27.88,3.89,90.11,3.89,90.11,0,0,22.26-3.89,26.58-3.46s-3.03-57.05,0-106.32-.43-92.49,8.21-103.73c8.64-11.24,14.69-63.1-12.75-61.37Z"/>
          <path class="cls-4" d="M638.84,105.23l3.28-15.05s41.66.35,71.49-12.61c29.82-12.97,43.22-21.61,71.75-17.29,28.53,4.32,48.41,39.33,43.22,70.88-5.19,31.55-77.36,37.95-99.41,57.01-22.04,19.06-60.14,57.1-101.17,52.99-41.02-4.11-7.31-103.52,10.84-135.93Z"/>
          <path class="cls-8" d="M670.44,177.27l18.9-3.4s-28.33,20.72-34.89,25.09h17.45s-33.46,28.32-57.12,35.29c3.06,3.86,7.28,6.35,13.01,6.93,41.03,4.11,79.13-33.93,101.17-52.99,10.51-9.09,32.41-15.3,53.02-22.73-35.91-5.83-85.47-22.03-111.53,11.82Z"/>
          <path class="cls-11" d="M676.98,169.65c12.97-1.21,27.5-2.17,33.89-1.2l-13.33,11.37,29.08-2.58-17.97,6.54s11.99-.84,25.31.36c11.61-7.01,29.93-12.43,47.35-18.71-32.84-5.34-77.08-19.31-104.34,4.22Z"/>
          <path class="cls-5" d="M753.39,45.96s-49.96,14.46-54.04,48.19c-4.08,33.73,11.54,70.15,37.15,78.74,25.61,8.59,49.33,5.01,64.64,14.77,15.31,9.76,49.91,13.29,64.96,6.26,15.05-7.04,26.66-16.05,25.88-19.21s-20.41-19.28-36.76-34.8c-16.34-15.52-16.65-23.36-11.67-43.29,4.98-19.93-31.12-71.56-90.16-50.65Z"/>
          <path class="cls-14" d="M560.13,455.53s29.5-5.29,36.3,7.57c6.81,12.86-16.53,18.04-34.04,17.07-17.5-.97-28.66-5.62-26.65-17.07,2.01-11.46,21.17-9.95,24.38-7.57Z"/>
          <path class="cls-8" d="M782.04,140.77c-44.27,5.65-69.08-8.17-82.38-21.5,3.83,24.96,17.43,47.17,36.7,53.63,25.61,8.59,49.33,5.01,64.64,14.77,15.31,9.76,49.91,13.29,64.96,6.26,6.04-2.82,11.51-5.96,15.86-8.92-11.99-9.97-62.7-48.97-99.77-44.24Z"/>
          <path class="cls-10" d="M884.48,168.5s-11.44,1.19-14.07,5.36c-2.63,4.17,5.3,7.51,9.9,7.93,4.6.42,8.54-1.19,11.88-4.93,3.34-3.74-5.35-8.7-7.71-8.36Z"/>
          <path class="cls-2" d="M783.42,123.04s18.93-5.72,21.25-4.21c2.32,1.51,3.71,8.48,7.09,9.67s4.32,3.86,3.03,3.99c-1.29.13-1.16-2.65-3.08-2.3s-23.71,7.87-28.28-7.15Z"/>
          <path class="cls-1" d="M803.96,125.42c.34,3.41-2.32,6.47-5.93,6.82-3.61.36-6.81-2.12-7.15-5.54-.34-3.41,2.32-6.47,5.93-6.82,3.61-.36,6.81,2.12,7.15,5.54Z"/>
          <path class="cls-6" d="M800.35,126.49c-.38,2.38-1.66,4.16-2.86,3.97-1.21-.19-1.88-2.28-1.5-4.66.38-2.38,1.66-4.16,2.86-3.97,1.21.19,1.88,2.28,1.5,4.66Z"/>
          <path class="cls-8" d="M792.3,126.13c.1,1.04-.66,1.96-1.7,2.07-1.04.1-1.96-.66-2.07-1.7-.1-1.04.66-1.96,1.7-2.07,1.04-.1,1.96.66,2.07,1.7Z"/>
          <path class="cls-16" d="M782.59,113.44c-3.61-1.1-3.52-6.26.08-7.39,6.78-2.13,18.28-5.39,20.74-3.82,3.54,2.26,9.1,7.41,6.88,9.75-1.6,1.69-18.91,4.16-27.7,1.47Z"/>
          <g>
            <path class="cls-16" d="M711.47,90.08s-11.17-18.4-4.43-38.24C717.31,21.62,751.29.25,753.84,0s18.58,38.56,20.1,45.36c1.53,6.79-48.94,25.33-62.47,44.72Z"/>
            <path class="cls-5" d="M714.41,88.5s-8.24-14-3.39-34.38c4.85-20.38,38.33-49.49,40.88-49.74s19.47,35.46,21,42.25c1.53,6.79-44.96,22.48-58.49,41.87Z"/>
            <path class="cls-8" d="M725.93,42.95c-6.68,12.53-6.66,27.19-6.1,34.56,14.21-10.26,34.63-19.04,45.16-25.28-3.29-17.63-14.34-39.4-14.34-39.4,0,0-15.37,12.59-24.72,30.12Z"/>
            <path class="cls-5" d="M719.91,78.31s4.37-17.37,18.85-27.43l-3.32,9.28,7.33-10.98-1.38,5.35s4.33-8.21,23.6-2.31c0,0-32.95,18.89-45.08,26.08Z"/>
          </g>
          <path class="cls-7" d="M393.28,131.3c9.77-31.76,29.92-44.7,54.17-54.69-23.34-1.48-47.69-3.99-85.1.17-48.06,5.34-70.76,22.62-86.86,41.05-12.88,14.75-19.35,34.34-16.23,53.67,9.26,57.31,91.45,52.52,153.85,54.74,16.51.59,34.18,2.93,51.79,6.06-35.74-20.1-85.21-56.84-71.62-101.01Z"/>
          <path class="cls-4" d="M294.55,99.73s-53.14,26.25-35.95,83.3,38.58,70.02,24.32,86.22c-14.26,16.21,45.38,47.33,82.98,4.54,37.6-42.79-.65-70.66,0-105.67.65-35.01-24.72-85.57-71.36-68.39Z"/>
          <path class="cls-7" d="M365.9,168.12c.65-35.01-24.72-85.57-71.36-68.39,0,0-53.14,26.25-35.95,83.3.16.53.32,1.02.48,1.54-.8-15.36,2.87-30.05,18.26-34.25,35.67-9.72,62.9,24.64,66.14,59.64,1.9,20.49,19.33,43.8,21.38,64.93.34-.38.7-.71,1.04-1.1,37.6-42.79-.65-70.66,0-105.67Z"/>
          <path class="cls-7" d="M577.83,121.31s-42.03,13.83-54.34,49.32c0,0,6.05-12.59,37.6-24.66,0,0-25.07,19.12-32.42,42.2l30.25-13.22s-29.82,13.43-37.17,24.01c0,0,3.89-18.82,13.4-33.51l-21.45,18.36s2.2-50.02,64.12-62.5Z"/>
          <path class="cls-4" d="M326.41,127.09l-10.81,12.42-2.26-27.46c-14.36,1.07-19.4,15.03-19.4,15.03,9.68-9.61,14.96-8.11,14.96-8.11-2.38,8.43,4.44,28.09,4.44,28.09l12.63-11.89c6.05,6.91,20.31,48.96,20.31,48.96-8.21-43.96-19.88-57.06-19.88-57.06Z"/>
          <path class="cls-4" d="M714.3,103.46s19.46-7.45,35.75-7.43l-10.9,15s32.59-2.69,43.89.03c0,0-32.42-2.63-47.66,4.69,0,0-.74-6.97,5.85-13.32,0,0-14.25-2.5-26.93,1.02Z"/>
          <path class="cls-14" d="M564.11,322.89c-12.11-10.19-19.45-10.42-28.05-20.23-4.46-5.09-10.36-4.01-15.6-1.18,5.42,25.52,12.35,54.07,11.95,71.49-.65,27.88,3.29,90.44,3.29,90.44,0,0,22.86-4.22,27.18-3.78,4.32.43-3.03-57.05,0-106.32.64-10.5.99-20.72,1.23-30.42Z"/>
          <path class="cls-14" d="M260.88,396.77s-4.54,15.51-2.38,30.42c2.16,14.91,17.07,15.99,25.72,18.8s12.75-12.53,12.53-24.85c-.22-12.32-19.45-38.55-35.87-24.37Z"/>
          <path class="cls-14" d="M292.59,295.4c-16.65.9-13.61-4.76-13.61-17.08,0-4.1-4.07-5.46-9.49-5.47-10.45,7.71-22.9,16.38-30,19.49-13.83,6.05-9.51,17.25-2.59,33.26,6.91,16.01,21.71,84.3,21.71,84.3l28.94-7.13s-18.88-77.8-14.34-88.17c2.37-5.41,20.32-6.58,41.63-12.72-4.77-3.23-12.51-7.01-22.24-6.49Z"/>
          <path class="cls-17" d="M708.83,318.88s-14.25-12.81-29.32-28.22c-1.25,4.89-1.83,10.21-.54,14.92,2.07,7.54-5.5,12.89-11.82,19.17,3.89,2.81,6.24,4.49,6.24,4.49l8.64,43.22s-18.15,34.58-6.05,48.41c12.1,13.83,26.8,5.19,32.85-18.15,6.05-23.34,0-83.85,0-83.85Z"/>
          <path class="cls-17" d="M351.47,341.38c-1.3-8.18-5.19-10.83-11.24-9.1-6.05,1.73,4.75-12.53,0-20.31-2.04-3.34-7.75-2.21-13.6.16-8.28,7.89-14.01,14.79-13.21,19.56,2.59,15.56,31.06,94.65,31.41,99.84.35,5.19,3.59,19.39,21.1,22.34,17.5,2.95,39.32,1.65,40.08-4.83.76-6.48-11.55-16.86-27.76-22.04-16.21-5.19-23.99-78.44-12.32-86.87.31-.22.66-.46,1.03-.7-7.48-.59-14.42,8.71-15.49,1.97Z"/>
          <path class="cls-12" d="M775.28,175.84s11.09-.87,22.25,4.97c11.17,5.85,31.51,16.22,46.74,16.46,0,0-6.38.4-11.49-.26-5.11-.66-22.32-5.75-28.49-9.92-6.17-4.17-19.6-9.36-21.75-8.06-2.15,1.3-9.38.71-7.26-3.19Z"/>
          <path class="cls-12" d="M840.39,174.99c.07.76-1.42,1.52-3.33,1.71-1.92.19-3.53-.27-3.6-1.03-.07-.76,1.42-1.52,3.33-1.71,1.92-.19,3.53.27,3.6,1.03Z"/>
          <path class="cls-12" d="M848.3,180.87c.1,1.04-1.07,2-2.61,2.15-1.54.15-2.88-.56-2.98-1.6-.1-1.04,1.07-2,2.61-2.15,1.54-.15,2.88.56,2.98,1.6Z"/>
          <path class="cls-12" d="M835.78,179.41c.04.43-.86.88-2.02.99-1.16.11-2.13-.15-2.17-.58s.86-.88,2.02-.99c1.16-.11,2.13.15,2.17.58Z"/>
          <path class="cls-12" d="M831,173.88c.06.62-.97,1.24-2.31,1.37s-2.47-.27-2.53-.89c-.06-.62.97-1.24,2.31-1.37s2.47.27,2.53.89Z"/>
          <path class="cls-12" d="M847.5,172.7c.09.87-1.1,1.7-2.64,1.85-1.54.15-2.87-.43-2.95-1.3-.09-.87,1.1-1.7,2.64-1.85s2.87.43,2.95,1.3Z"/>
          <path class="cls-12" d="M856.83,178.18c.09.89-.78,1.71-1.94,1.82-1.16.11-2.17-.52-2.26-1.41-.09-.89.78-1.71,1.94-1.82,1.16-.11,2.17.52,2.26,1.41Z"/>
          <path class="cls-12" d="M846.06,186.81c.07.76-1.01,1.48-2.42,1.62-1.41.14-2.61-.36-2.69-1.12-.07-.76,1.01-1.48,2.42-1.62,1.41-.14,2.61.36,2.69,1.12Z"/>
          <path class="cls-15" d="M198.47,161.96s-67.42,5.65-97.68,42.39l27.66-6.05s-39.76,12.71-51.43,34.02c0,0,43.22-31.58,69.58-35.18,0,0-5.73-5.97-25.82-3.22,0,0,41.55-27.97,77.69-31.96Z"/>
          <path class="cls-15" d="M549.08,219.3c-7.59,6.69-21.55,20-23.43,28.91l7.13-4.58c-2.94,2.83-8.06,11.97-7.13,41.1,0,0-.39-35.44,20.12-48.41l-9.96.86s7.58-11.48,13.27-17.89Z"/>
          <path class="cls-8" d="M717.51,115.79l6.84,2.07-13.33-14.48c-.57-1.29-1.1-2.59-1.62-3.91l7.17,3.2c-7.46-8.42-8.91-32.77-8.91-32.77l-4.86,2.96-22.21,13.51-9.94,21.72,20.31-6.16-20.31,18.1v19.07l20.2-16.8c-3.06,2.55-23.02,19.43-25.82,28.01,0,0,27.93-6.9,55.16,10.96,8.71,5.72,15.93-4.96,21.11-18.18-9.43-7.72-17.48-16.97-23.79-27.31Z"/>
          <g>
            <path class="cls-9" d="M271.4,424.94s3.02,9.65-3.39,14.8c0,0,12.06-1.22,3.39-14.8Z"/>
            <path class="cls-9" d="M281.61,428.51s3.02,9.65-3.39,14.8c0,0,12.06-1.22,3.39-14.8Z"/>
            <path class="cls-9" d="M289,426.35s6.9,7.39,3.36,14.8c0,0,10.34-6.33-3.36-14.8Z"/>
          </g>
          <g>
            <path class="cls-9" d="M569.83,464.23s7.33,6.96,4.24,14.58c0,0,9.95-6.93-4.24-14.58Z"/>
            <path class="cls-9" d="M580.48,462.38s7.33,6.96,4.24,14.58c0,0,9.95-6.93-4.24-14.58Z"/>
            <path class="cls-9" d="M585.88,456.9s9.63,3.1,10.14,11.3c0,0,5.96-10.56-10.14-11.3Z"/>
          </g>
          <g>
            <path class="cls-3" d="M382.47,444.64s9.9,2.06,11.28,10.16c0,0,4.81-11.13-11.28-10.16Z"/>
            <path class="cls-3" d="M390.14,442.59s9.9,2.06,11.28,10.16c0,0,4.81-11.13-11.28-10.16Z"/>
          </g>
          <g>
            <path class="cls-3" d="M693.26,410.36s2.16,10.41-5.1,15.15c0,0,12.79-.05,5.1-15.15Z"/>
            <path class="cls-3" d="M700.93,405.48s4.5,9.63-1.48,15.92c0,0,12.43-2.99,1.48-15.92Z"/>
          </g>
        </g>
        <path class="cls-13" d="M880.07,174.16c0,.65-1.6,1.18-3.57,1.18s-3.57-.53-3.57-1.18,1.6-1.18,3.57-1.18,3.57.53,3.57,1.18Z"/>
        <path class="cls-12" d="M870.19,177.53c-3.21.1-15.35,1.08-18.21,9.92l.62.2c2.97-9.19,16.65-9.48,18.2-9.49-.21-.21-.42-.42-.61-.64Z"/>
        <path class="cls-12" d="M871.47,178.78c-3.72.72-14.63,3.57-16.12,12.33l.64.11c1.5-8.84,13.25-11.41,16.16-11.91-.24-.17-.46-.35-.68-.53Z"/>
        <path class="cls-12" d="M872.19,179.33c-4.45,1.63-12.61,5.66-13.09,13.43l.65.04c.47-7.66,8.9-11.56,13.1-13.03-.23-.14-.45-.29-.66-.44Z"/>
      </g>
      <path class="cls-16" d="M585.04,211.73l-17.03,31.41s2.21-26.48,17.03-31.41Z"/>
    </g>
  </g>
</svg>