<?xml version="1.0" encoding="UTF-8"?>
<svg id="Layer_2" data-name="Layer 2" xmlns="http://www.w3.org/2000/svg" viewBox="0 0 910.07 477.38">
  <defs>
    <style>
      .cls-1 {
        fill: #35352b;
      }

      .cls-1, .cls-2, .cls-3, .cls-4, .cls-5, .cls-6, .cls-7, .cls-8, .cls-9, .cls-10, .cls-11, .cls-12, .cls-13, .cls-14, .cls-15, .cls-16, .cls-17 {
        stroke-width: 0px;
      }

      .cls-2 {
        fill: #7d4f37;
      }

      .cls-3 {
        fill: #300f08;
      }

      .cls-4 {
        fill: #d83d00;
      }

      .cls-5 {
        fill: #e94c01;
      }

      .cls-6 {
        fill: #111103;
      }

      .cls-7 {
        fill: #512718;
        opacity: .11;
      }

      .cls-8, .cls-13 {
        fill: #cda98f;
      }

      .cls-9 {
        fill: #3f1b15;
      }

      .cls-10 {
        fill: #100b08;
      }

      .cls-11 {
        fill: #b59885;
      }

      .cls-12 {
        fill: #986b58;
      }

      .cls-13 {
        opacity: .26;
      }

      .cls-14 {
        fill: #773118;
      }

      .cls-15 {
        fill: #ed612f;
      }

      .cls-16 {
        fill: #bf3100;
      }

      .cls-17 {
        fill: #511c0e;
      }
    </style>
  </defs>
  <g id="pose_4" data-name="pose 4">
    <g>
      <path class="cls-17" d="M240,417.44l-7.2,5.08s-13.55,14.8-12.25,23.66,7.78,14.26,19.45,10.59,24.12-16.25,22.79-34.25c-1.33-18.01-21.28-10.16-22.79-5.08Z"/>
      <g>
        <path class="cls-16" d="M376.54,88.39s-89.73-1.06-97.65,38.77c-7.92,39.83,34.55,95.04,28.53,116.59-6.02,21.55-67.2,52.18-70.06,68.5-2.86,16.32-2.94,104.27-4.37,109.54-.06.22-.12.48-.18.73h29.98c-6.38-20.48,8.96-80.75,21.36-84.84,13.92-4.6,69.61-7.12,102.16-50.03,32.55-42.91,22.83-102.49,31.16-140.73,8.32-38.24-3.6-55.52-40.92-58.53Z"/>
        <path class="cls-17" d="M262.78,422.52c-6.38-20.48,8.97-80.75,21.36-84.84.37-.12.79-.24,1.21-.36-6.88-3.02-16.62,3.99-15.32-3.06,1.57-8.57-1.21-12.46-7.52-12.71-6.31-.24,8.78-10.93,6.94-20.21-.79-3.99-6.58-4.71-12.92-4.25-10.52,5.16-18.3,10.17-19.18,15.17-2.86,16.32-2.94,104.27-4.37,109.54-.06.22-.12.48-.18.73h29.98Z"/>
      </g>
      <path class="cls-16" d="M790.31,53.6s39.49-27.19,63.05-27.66c0,0-22.56,34.16-23.91,48.64-1.35,14.48-38.5-13.95-39.15-20.99Z"/>
      <path class="cls-8" d="M826.76,82.04c1.23-13.18,20.02-42.66,23.39-47.85-9.83,5.27-28.06,29.09-29.85,38.59-1.07,5.68,1.75,10.02,4.47,12.77,1.11-.6,1.82-1.73,1.99-3.51Z"/>
      <path class="cls-16" d="M610.83,318.08c5.98-1.16,12.45-2.17,18.73-3.7-6.48-24.04-12.53-52.5-7.69-61.11,8.85-15.73,27.55-29.63,33.76-54.91,6.21-25.27-49.63-50.29-62.48-25.95,0,0-37.74,47.56-36.46,59.3.91,8.33,23.93,59.85,37.24,89.09,5.62-.77,11.24-1.64,16.9-2.74Z"/>
      <path class="cls-4" d="M256.73,171.5c-3.12-19.33,3.35-38.93,16.23-53.67,16.1-18.43,38.8-35.71,86.86-41.05,77.8-8.64,138.12,12.17,201.82,2.59,59.08-8.88,72.83,12.03,89.25,12.03s13.83,90.76,18.15,115.83c4.32,25.07-63.1,37.17-76.93,47.54-13.83,10.37-108.91-25.93-181.52-28.53-62.4-2.23-144.59,2.57-153.85-54.74Z"/>
      <path class="cls-8" d="M539.72,208.69c-37.09,5.34-121.74-9.74-121.74-9.74l13.4-1.83-65.93-17.28c-14.1.47,1.02,30.39,10.41,46.82,12.64.39,25.2.56,37.05.99,50.7,1.81,112.74,19.17,150.04,26.49-13.74-23.69-7.21-43.25-23.23-45.45Z"/>
      <path class="cls-4" d="M495.31,372.3c5.69,1.24,11.86.74,17.61.62,4.7-.09,8.96-.54,13.02-1.39,1.6-7.12,3.34-14.24,5.27-21.14,13.27-47.55,18.94-90.53,29.74-99.71,10.8-9.18,27.58-58.63.38-62.68,0,0-53.55,36.45-58.53,62.81-4.98,26.36.97,85.31-5.5,112.44-.65,2.7-1.31,5.76-1.99,9.06Z"/>
      <path class="cls-4" d="M636.19,105.23l3.28-15.05s41.66.35,71.49-12.61c29.82-12.97,43.22-21.61,71.75-17.29,28.53,4.32,48.41,39.33,43.22,70.88-5.19,31.55-77.36,37.95-99.41,57.01-22.04,19.06-60.14,57.1-101.17,52.99-41.02-4.11-7.31-103.52,10.84-135.93Z"/>
      <path class="cls-8" d="M667.79,177.27l18.9-3.4s-28.33,20.72-34.89,25.09h17.45s-33.46,28.32-57.12,35.29c3.06,3.86,7.28,6.35,13.01,6.93,41.03,4.11,79.13-33.93,101.17-52.99,10.51-9.09,32.41-15.3,53.02-22.73-35.91-5.83-85.47-22.03-111.53,11.82Z"/>
      <path class="cls-11" d="M674.34,169.65c12.97-1.21,27.5-2.17,33.89-1.2l-13.33,11.37,29.08-2.58-17.97,6.54s11.99-.84,25.31.36c11.61-7.01,29.93-12.43,47.35-18.71-32.84-5.34-77.08-19.31-104.34,4.22Z"/>
      <path class="cls-5" d="M750.75,45.96s-49.96,14.46-54.04,48.19c-4.08,33.73,11.54,70.15,37.15,78.74,25.61,8.59,49.33,5.01,64.64,14.77,15.31,9.76,49.91,13.29,64.96,6.26,15.05-7.04,26.66-16.05,25.88-19.21s-20.41-19.28-36.76-34.8c-16.34-15.52-16.65-23.36-11.67-43.29,4.98-19.93-31.12-71.56-90.16-50.65Z"/>
      <path class="cls-17" d="M657.27,450.71s29.97.35,34.25,14.13c4.28,13.78-19.62,14.47-36.63,10.26-17.01-4.21-27.1-10.81-22.98-21.58,4.12-10.77,22.66-5.74,25.36-2.82Z"/>
      <path class="cls-8" d="M779.39,140.77c-44.27,5.65-69.08-8.17-82.38-21.5,3.83,24.96,17.43,47.17,36.7,53.63,25.61,8.59,49.33,5.01,64.64,14.77,15.31,9.76,49.91,13.29,64.96,6.26,6.04-2.82,11.51-5.96,15.86-8.92-11.99-9.97-62.7-48.97-99.77-44.24Z"/>
      <path class="cls-2" d="M784.91,132.34s18.93-5.72,21.25-4.21c2.32,1.51,3.71,8.48,7.09,9.67,3.37,1.19,4.32,3.86,3.03,3.99-1.29.13-1.16-2.65-3.08-2.3-1.92.35-23.71,7.87-28.28-7.15Z"/>
      <path class="cls-1" d="M805.45,134.72c.34,3.41-2.32,6.47-5.93,6.82s-6.81-2.12-7.15-5.54c-.34-3.41,2.32-6.47,5.93-6.82s6.81,2.12,7.15,5.54Z"/>
      <path class="cls-6" d="M801.84,135.79c-.38,2.38-1.66,4.16-2.86,3.97-1.21-.19-1.88-2.28-1.5-4.66.38-2.38,1.66-4.16,2.86-3.97,1.21.19,1.88,2.28,1.5,4.66Z"/>
      <path class="cls-8" d="M793.79,135.43c.1,1.04-.66,1.96-1.7,2.07-1.04.1-1.96-.66-2.07-1.7-.1-1.04.66-1.96,1.7-2.07,1.04-.1,1.96.66,2.07,1.7Z"/>
      <path class="cls-16" d="M779.95,113.44c-3.61-1.1-3.52-6.26.08-7.39,6.78-2.13,18.28-5.39,20.74-3.82,3.54,2.26,9.1,7.41,6.88,9.75-1.6,1.69-18.91,4.16-27.7,1.47Z"/>
      <g>
        <path class="cls-16" d="M708.82,90.08s-11.17-18.4-4.43-38.24C714.67,21.62,748.64.25,751.19,0s18.57,38.56,20.1,45.36c1.53,6.79-48.94,25.33-62.47,44.72Z"/>
        <path class="cls-5" d="M711.76,88.5s-8.24-14-3.39-34.38c4.85-20.38,38.33-49.49,40.88-49.74s19.47,35.46,21,42.25c1.53,6.79-44.96,22.48-58.49,41.87Z"/>
        <path class="cls-8" d="M723.28,42.95c-6.68,12.53-6.66,27.19-6.1,34.56,14.21-10.26,34.63-19.04,45.16-25.28-3.29-17.63-14.34-39.4-14.34-39.4,0,0-15.37,12.59-24.72,30.12Z"/>
        <path class="cls-5" d="M717.26,78.31s4.37-17.37,18.85-27.43l-3.32,9.28,7.33-10.98-1.38,5.35s4.33-8.21,23.6-2.31c0,0-32.95,18.89-45.08,26.08Z"/>
      </g>
      <path class="cls-7" d="M390.64,131.3c9.77-31.76,29.92-44.7,54.17-54.69-23.34-1.48-47.69-3.99-85.1.17-48.06,5.34-70.76,22.62-86.86,41.05-12.88,14.75-19.35,34.34-16.23,53.67,9.26,57.31,91.45,52.52,153.85,54.74,16.51.59,34.18,2.93,51.79,6.06-35.74-20.1-85.21-56.84-71.62-101.01Z"/>
      <path class="cls-4" d="M295.13,105.49s-61.82,37.88-33.86,90.5,66.26,59.38,55.42,78.05c-10.84,18.67,53.72,37.6,82.28-11.68,28.56-49.28-14.38-69.19-20.55-103.66-6.17-34.47-40.89-79.13-83.29-53.21Z"/>
      <path class="cls-7" d="M378.42,158.7c-6.17-34.47-42.59-78.26-85-52.34,0,0-59.23,38.25-31.28,90.86.26.48.51.94.77,1.42-3.77-14.91,10.89-33.07,25.17-40.18,33.1-16.47,66.49,11.94,76.48,45.65,5.84,19.73,27.47,39.21,33.6,59.53.26-.44.55-.84.81-1.28,28.56-49.28-14.38-69.19-20.55-103.66Z"/>
      <path class="cls-7" d="M575.18,121.31s-42.03,13.83-54.34,49.32c0,0,6.05-12.59,37.6-24.66,0,0-25.07,19.12-32.42,42.2l30.25-13.22s-29.82,13.43-37.17,24.01c0,0,3.89-18.82,13.4-33.51l-21.45,18.36s2.19-50.02,64.12-62.5Z"/>
      <path class="cls-4" d="M331.7,126.14l-8.18,14.29-7.55-26.49c-13.88,3.84-16.11,18.52-16.11,18.52,7.62-11.31,13.1-10.86,13.1-10.86-.69,8.73,9.82,26.69,9.82,26.69l10.08-14.11c7.28,5.61,29.45,44.07,29.45,44.07-16.6-41.53-30.6-52.1-30.6-52.1Z"/>
      <path class="cls-4" d="M711.65,103.46s19.46-7.45,35.75-7.43l-10.9,15s32.59-2.69,43.89.03c0,0-32.42-2.63-47.66,4.69,0,0-.74-6.97,5.85-13.32,0,0-14.25-2.5-26.93,1.02Z"/>
      <path class="cls-14" d="M495.83,372.41c5.54,1.1,11.52.63,17.1.52,4.93-.1,9.37-.6,13.6-1.54,1.58-7.04,3.3-14.07,5.21-20.89,2.83-10.13,5.31-20.05,7.57-29.49-9.71-12.5-16.84-14.27-23.19-25.65-3.3-5.91-9.3-6.09-15.01-4.42-.04,26.09.76,55.46-3.28,72.41-.64,2.7-1.32,5.76-2,9.05Z"/>
      <path class="cls-14" d="M313.1,458.51c-1.1,4.64,1.76,9.31,6.32,10.71,4.4,1.35,11.07,3.3,19.06,5.32,14.61,3.69,31.33,3.55,31.93-11.18.51-12.48-9.06-15.33-20.52-19.82-9.64-3.78-33.49,1.11-36.79,14.99Z"/>
      <path class="cls-12" d="M772.63,175.84s11.09-.87,22.25,4.97c11.17,5.85,31.51,16.22,46.74,16.46,0,0-6.38.4-11.49-.26s-22.32-5.75-28.49-9.92c-6.17-4.17-19.6-9.36-21.75-8.06s-9.38.71-7.26-3.19Z"/>
      <g>
        <path class="cls-12" d="M836.57,173.9c.07.76-1.42,1.52-3.33,1.71-1.92.19-3.53-.27-3.6-1.03-.07-.76,1.42-1.52,3.33-1.71,1.92-.19,3.53.27,3.6,1.03Z"/>
        <path class="cls-12" d="M844.48,179.78c.1,1.04-1.07,2-2.61,2.15-1.54.15-2.88-.56-2.98-1.6-.1-1.04,1.07-2,2.61-2.15,1.54-.15,2.88.56,2.98,1.6Z"/>
        <path class="cls-12" d="M831.96,178.32c.04.43-.86.88-2.02.99-1.16.11-2.13-.15-2.17-.58-.04-.43.86-.88,2.02-.99,1.16-.11,2.13.15,2.17.58Z"/>
        <path class="cls-12" d="M827.18,172.79c.06.62-.97,1.24-2.31,1.37-1.34.13-2.47-.27-2.53-.89-.06-.62.97-1.24,2.31-1.37,1.34-.13,2.47.27,2.53.89Z"/>
        <path class="cls-12" d="M843.67,171.61c.09.87-1.1,1.7-2.64,1.85-1.54.15-2.87-.43-2.95-1.3-.09-.87,1.1-1.7,2.64-1.85,1.54-.15,2.87.43,2.95,1.3Z"/>
        <path class="cls-12" d="M853.01,177.09c.09.89-.78,1.71-1.94,1.82-1.16.11-2.17-.52-2.26-1.41s.78-1.71,1.94-1.82c1.16-.11,2.17.52,2.26,1.41Z"/>
        <path class="cls-12" d="M842.24,185.72c.07.76-1.01,1.48-2.42,1.62-1.41.14-2.61-.36-2.69-1.12s1.01-1.48,2.42-1.62c1.41-.14,2.61.36,2.69,1.12Z"/>
      </g>
      <g>
        <g>
          <path class="cls-4" d="M259.73,127.02s-35.28,10.36-96.65,29.7C101.71,176.06,18.95,252.52,2.94,305.59c-16.01,53.07,41.86,56.08,82.63,45.15,79.11-21.22,97.68-89.64,126.06-112.82,28.39-23.18,46.22-87.79,62.5-96.63,0,0,4.61-17.02-14.41-14.27Z"/>
          <path class="cls-8" d="M104.25,333.91c-5.86-1.86,15.21-23.57,10.66-24.13-4.55-.56-34.93,5.68-46.58,6.91-11.65,1.23,2.22-25.08,11.05-42.06,8.83-16.98-24.21-14.56-35.92-17.31-3.47-.81-3.02-7.29-.7-15.96-19.39,21.72-34.18,44.24-40.03,63.63-16.01,53.07,41.86,56.08,82.63,45.15,19.93-5.34,36-13.69,49.37-23.54-14.15,4.38-27.83,8.16-30.49,7.31Z"/>
          <path class="cls-7" d="M267.23,126.9c-20.26,11.65-44.81,37.92-68.68,81.48-28.9,52.72-82.02,90.57-123.54,107.18-25.15,10.06-46.05,12.33-54.72,5.37-9.95-8-12.04-19.94-11.23-30.91-2.57,5.27-4.64,10.41-6.13,15.34-3.44,11.42-3.45,20.51-.96,27.65,9.08,26.05,51.59,26.08,83.59,17.49,79.11-21.22,97.67-89.64,126.06-112.82,28.39-23.18,46.22-87.79,62.5-96.63,0,0,3.17-11.87-6.91-14.15Z"/>
        </g>
        <path class="cls-15" d="M196.13,162.59s-67.33,6.65-97.04,43.83l27.57-6.46s-39.57,13.3-50.92,34.78c0,0,42.75-32.22,69.06-36.2,0,0-5.81-5.89-25.87-2.83,0,0,41.14-28.59,77.21-33.11Z"/>
      </g>
      <path class="cls-15" d="M546.3,216.57c-8.82,4.95-25.26,15.05-28.96,23.36l7.93-2.99c-3.46,2.16-10.39,10.02-15.57,38.7,0,0,7.03-34.74,29.8-43.12l-9.92-1.24s9.81-9.64,16.72-14.71Z"/>
      <path class="cls-8" d="M714.86,115.79l6.84,2.07-13.33-14.48c-.57-1.29-1.1-2.59-1.62-3.91l7.17,3.2c-7.46-8.42-8.91-32.77-8.91-32.77l-4.86,2.96-22.21,13.51-9.94,21.72,20.31-6.16-20.31,18.1v19.07l20.2-16.8c-3.06,2.55-23.02,19.43-25.82,28.01,0,0,27.93-6.9,55.16,10.96,8.71,5.72,15.93-4.96,21.11-18.18-9.43-7.72-17.48-16.97-23.79-27.31Z"/>
      <g>
        <path class="cls-9" d="M351.29,461.81s10.07.71,12.39,7.05c0,0,3.48-9.34-12.39-7.05Z"/>
        <path class="cls-9" d="M356.71,455.32s10.07.71,12.39,7.05c0,0,3.48-9.34-12.39-7.05Z"/>
        <path class="cls-9" d="M354.45,452.88s9.46-2.87,14.97,2.04c0,0-1.9-9.63-14.97-2.04Z"/>
      </g>
      <path class="cls-17" d="M583.68,298.07s32.73,92.64,32.23,117.03c-.5,24.39,19.49,47.15,19.49,47.15l25.89,2.71-34.14-159.85s-20.08-11.73-43.47-7.04Z"/>
      <g>
        <path class="cls-3" d="M681.54,475.58c4.26-7.37-2.37-15.15-2.37-15.15l2.37,15.15Z"/>
        <path class="cls-3" d="M685.63,458.01l5.92,14.12c2.42-8.08-5.92-14.12-5.92-14.12Z"/>
      </g>
      <path class="cls-16" d="M583.86,228.76l-25.53,24.99s9.92-24.65,25.53-24.99Z"/>
      <path class="cls-14" d="M498.02,359.53s-1.94,15.2-18.8,21.43c-16.86,6.23-32.9,8.82-40.44,15.95-7.54,7.13-8.02,21.39,0,24.64,8.02,3.24,18.07-7.46,32.33-8.75,14.26-1.3,21.07-4.21,33.71-11.67,12.64-7.46,17.16-8.65,23.17-38.36,6.01-29.71-29-27.33-29.98-3.24"/>
      <path class="cls-4" d="M317.68,263.64s-4.64,20.45-12.85,33.32c-8.21,12.87-30.61,33.22-28.05,48.76,2.55,15.54,35.4,116.45,35.4,116.45l25.93-4.16s-9.46-52.4-12.08-85.81c-2.62-33.41,6.5-47.51,26.34-58.48s39.22-31.86,40.36-42.3c1.13-10.43-75.05-7.78-75.05-7.78Z"/>
      <path class="cls-14" d="M340.47,310.27c-12.1-3.46-24.2,2.59-31.55-6.48-1.83-2.26-4.19-2.99-6.7-2.82-9.58,12.83-27.54,30.74-25.24,44.76,2.55,15.54,35.4,116.45,35.4,116.45l25.93-4.16s-9.46-52.4-12.08-85.81c-2.45-31.31,5.4-45.66,22.72-56.37-1.96-2.38-4.69-4.49-8.48-5.57Z"/>
      <g>
        <path class="cls-9" d="M451,403.17s-8.96,4.65-14.25.45c0,0,1.91,9.78,14.25-.45Z"/>
        <path class="cls-9" d="M449.77,411.54s-8.96,4.65-14.25.45c0,0,1.91,9.78,14.25-.45Z"/>
        <path class="cls-9" d="M452.97,412.45s-6.57,7.39-13.83,6.08c0,0,6.65,7.22,13.83-6.08Z"/>
      </g>
      <path class="cls-10" d="M227.56,456.81c6.36,3.49,11.79-4.37,11.79-4.37-1.78,1.39-11.79,4.37-11.79,4.37Z"/>
      <path class="cls-10" d="M235.17,456.44c6.36,3.49,11.79-4.37,11.79-4.37-1.78,1.39-11.79,4.37-11.79,4.37Z"/>
      <path class="cls-10" d="M223.99,453.81c6.36,3.49,11.79-4.37,11.79-4.37-1.78,1.39-11.79,4.37-11.79,4.37Z"/>
      <g>
        <g>
          <path class="cls-12" d="M884.89,174.32l-.62-.2c3.28-10.16,18.83-9.94,18.99-9.93v.65c-.17,0-15.25-.21-18.38,9.49Z"/>
          <path class="cls-12" d="M886.87,173.45l-.53-.37c6.03-8.81,20.89-4.16,21.04-4.12l-.2.62c-.15-.05-14.54-4.55-20.3,3.86Z"/>
          <path class="cls-12" d="M909.73,174.1c-.13-.08-12.97-7.99-20.63-1.26l-.43-.49c8.02-7.05,21.27,1.12,21.4,1.2l-.34.55Z"/>
        </g>
        <path class="cls-10" d="M883.41,168.57s-11.44,1.19-14.07,5.36,5.3,7.51,9.9,7.93c4.6.42,8.54-1.19,11.88-4.93,3.34-3.74-5.35-8.7-7.71-8.36Z"/>
        <path class="cls-13" d="M879,174.23c0,.65-1.6,1.18-3.57,1.18s-3.57-.53-3.57-1.18,1.6-1.18,3.57-1.18,3.57.53,3.57,1.18Z"/>
        <path class="cls-12" d="M869.12,177.6c-3.21.1-15.35,1.08-18.21,9.92l.62.2c2.97-9.19,16.65-9.48,18.2-9.49-.21-.21-.42-.42-.61-.64Z"/>
        <path class="cls-12" d="M870.41,178.85c-3.72.72-14.63,3.57-16.12,12.33l.64.11c1.5-8.84,13.25-11.41,16.16-11.91-.24-.17-.46-.35-.68-.53Z"/>
        <path class="cls-12" d="M871.12,179.4c-4.45,1.63-12.61,5.66-13.09,13.43l.65.04c.47-7.66,8.9-11.56,13.1-13.03-.23-.14-.45-.29-.66-.44Z"/>
      </g>
    </g>
  </g>
</svg>