<?xml version="1.0" encoding="UTF-8"?>
<svg id="Layer_2" data-name="Layer 2" xmlns="http://www.w3.org/2000/svg" viewBox="0 0 859.25 479.34">
  <defs>
    <style>
      .cls-1 {
        fill: #35352b;
      }

      .cls-1, .cls-2, .cls-3, .cls-4, .cls-5, .cls-6, .cls-7, .cls-8, .cls-9, .cls-10, .cls-11, .cls-12, .cls-13, .cls-14, .cls-15, .cls-16, .cls-17 {
        stroke-width: 0px;
      }

      .cls-2 {
        fill: #7d4f37;
      }

      .cls-3 {
        fill: #300f08;
      }

      .cls-4 {
        fill: #d83d00;
      }

      .cls-5 {
        fill: #e94c01;
      }

      .cls-6 {
        fill: #111103;
      }

      .cls-7 {
        fill: #512718;
        opacity: .11;
      }

      .cls-8, .cls-13 {
        fill: #cda98f;
      }

      .cls-9 {
        fill: #3f1b15;
      }

      .cls-10 {
        fill: #100b08;
      }

      .cls-11 {
        fill: #b59885;
      }

      .cls-12 {
        fill: #986b58;
      }

      .cls-13 {
        opacity: .26;
      }

      .cls-14 {
        fill: #773118;
      }

      .cls-15 {
        fill: #ed612f;
      }

      .cls-16 {
        fill: #bf3100;
      }

      .cls-17 {
        fill: #511c0e;
      }
    </style>
  </defs>
  <g id="pose_2" data-name="pose 2">
    <g>
      <g>
        <path class="cls-16" d="M322.06,86.51s-59.73,6.64-61.28,45.25c-1.55,38.6,37.15,100.73,34.6,121.85-2.55,21.12-75.13,46.7-75.39,62.47-.26,15.77,13.48,98.7,12.89,103.87-.59,5.16.04,19.72,16.72,25.78,16.69,6.05,38.37,8.71,40.29,2.47s-8.33-18.66-23.33-26.69c-15.01-8.02-9.45-81.48,3.55-87.67,13-6.19,67.52-15.96,92.87-60.75,25.35-44.79,6.41-99.67,8.61-136.83s-12.27-51.87-49.54-49.75Z"/>
        <path class="cls-17" d="M255.67,332.48c.2-8.28-3.15-11.59-9.41-10.98-6.26.61,6.94-11.47,3.66-19.98-1.41-3.65-7.23-3.57-13.41-2.29-9.56,6.26-16.45,12.02-16.52,16.85-.26,15.77,13.48,98.7,12.89,103.87-.59,5.16.04,19.72,16.72,25.78,16.69,6.05,38.37,8.71,40.29,2.47,1.92-6.24-8.33-18.66-23.33-26.69-15.01-8.02-9.45-81.48,3.55-87.67.35-.16.74-.33,1.14-.5-7.25-1.93-15.76,5.97-15.59-.85Z"/>
        <g>
          <path class="cls-3" d="M267.53,439.64s9.37,3.81,9.26,12.03c0,0,6.74-10.08-9.26-12.03Z"/>
          <path class="cls-3" d="M275.45,439.01s9.37,3.81,9.26,12.03c0,0,6.74-10.08-9.26-12.03Z"/>
        </g>
      </g>
      <path class="cls-16" d="M738.42,53.6s39.49-27.19,63.05-27.66c0,0-22.56,34.16-23.91,48.64-1.35,14.48-38.5-13.95-39.15-20.99Z"/>
      <path class="cls-8" d="M777.38,74.35c1.23-13.18,20.02-42.66,23.39-47.85-9.83,5.27-28.06,29.09-29.85,38.59-1.07,5.68,1.75,10.02,4.47,12.77,1.11-.6,1.82-1.73,1.99-3.51Z"/>
      <path class="cls-4" d="M262.37,262.44s-28.5,33.17-40.94,41.71-6.1,18.73,3.7,33.15c9.8,14.43,37.16,78.72,37.16,78.72l27.08-12.44s-33.16-72.86-30.65-83.9c2.51-11.04,64.12-17.46,88.24-67,24.12-49.54-81.82-17.6-84.59,9.76Z"/>
      <path class="cls-16" d="M596.99,311.07c5.24-3.14,10.98-6.31,16.38-9.9-14.22-20.62-29.54-45.6-27.9-55.42,3.01-17.96,15.91-37.55,13.21-63.68-2.7-26.13-63.71-30.84-67.57-3.33,0,0-19.44,58.06-14.26,68.77,3.67,7.6,42.76,48.68,65.17,71.93,5.03-2.65,10.03-5.4,14.98-8.37Z"/>
      <path class="cls-4" d="M204.84,171.5c-3.12-19.33,3.35-38.93,16.23-53.67,16.1-18.43,38.8-35.71,86.86-41.05,77.8-8.64,138.12,12.17,201.82,2.59,59.08-8.88,72.83,12.03,89.25,12.03s13.83,90.76,18.15,115.83c4.32,25.07-63.1,37.17-76.93,47.54s-108.91-25.93-181.52-28.53c-62.4-2.23-144.59,2.57-153.85-54.74Z"/>
      <path class="cls-8" d="M487.82,208.69c-37.09,5.34-121.74-9.74-121.74-9.74l13.4-1.83-65.93-17.28c-14.1.47,1.02,30.39,10.41,46.82,12.64.39,25.2.56,37.05.99,50.7,1.81,112.74,19.17,150.04,26.49-13.74-23.69-7.21-43.25-23.23-45.45Z"/>
      <path class="cls-4" d="M507.37,188.07s-50.73,40.28-53.76,66.93c-3.03,26.66,7.23,85.01,2.77,112.54-4.46,27.53-8.49,89.8-8.49,89.8,0,0,22.58-.8,26.81.22s4.82-56.93,14.56-105.32c9.75-48.39,12.24-91.68,22.34-101.63,10.1-9.95,23.2-60.49-4.22-62.54Z"/>
      <path class="cls-4" d="M584.3,105.23l3.28-15.05s41.66.35,71.49-12.61c29.82-12.97,43.22-21.61,71.75-17.29,28.53,4.32,48.41,39.33,43.22,70.88-5.19,31.55-77.36,37.95-99.41,57.01-22.04,19.06-60.14,57.1-101.17,52.99-41.02-4.11-7.31-103.52,10.84-135.93Z"/>
      <path class="cls-8" d="M615.9,177.27l18.9-3.4s-28.33,20.72-34.89,25.09h17.45s-33.46,28.32-57.12,35.29c3.06,3.86,7.28,6.35,13.01,6.93,41.03,4.11,79.13-33.93,101.17-52.99,10.51-9.09,32.41-15.3,53.02-22.73-35.91-5.83-85.47-22.03-111.53,11.82Z"/>
      <path class="cls-11" d="M622.44,169.65c12.97-1.21,27.5-2.17,33.89-1.2l-13.33,11.37,29.08-2.58-17.97,6.54s11.99-.84,25.31.36c11.61-7.01,29.93-12.43,47.35-18.71-32.84-5.34-77.08-19.31-104.34,4.22Z"/>
      <path class="cls-5" d="M698.85,45.96s-49.96,14.46-54.04,48.19c-4.08,33.73,11.54,70.15,37.15,78.74,25.61,8.59,49.33,5.01,64.64,14.77,15.31,9.76,49.91,13.29,64.96,6.26s26.66-16.05,25.88-19.21-20.41-19.28-36.76-34.8c-16.34-15.52-16.65-23.36-11.67-43.29,4.98-19.93-31.12-71.56-90.16-50.65Z"/>
      <path class="cls-14" d="M473.07,453.19s29.94-1.2,34.93,12.47c4.98,13.67-18.85,15.61-36.05,12.25-17.21-3.36-27.62-9.49-24.06-20.56,3.56-11.07,22.33-6.96,25.18-4.16Z"/>
      <path class="cls-8" d="M727.5,140.77c-44.27,5.65-69.08-8.17-82.38-21.5,3.83,24.96,17.43,47.17,36.7,53.63,25.61,8.59,49.33,5.01,64.64,14.77,15.31,9.76,49.91,13.29,64.96,6.26,6.04-2.82,11.51-5.96,15.86-8.92-11.99-9.97-62.7-48.97-99.77-44.24Z"/>
      <path class="cls-2" d="M733.02,132.34s18.93-5.72,21.25-4.21c2.32,1.51,3.71,8.48,7.09,9.67,3.37,1.19,4.32,3.86,3.03,3.99-1.29.13-1.16-2.65-3.08-2.3-1.92.35-23.71,7.87-28.28-7.15Z"/>
      <path class="cls-1" d="M753.55,134.72c.34,3.41-2.32,6.47-5.93,6.82s-6.81-2.12-7.15-5.54c-.34-3.41,2.32-6.47,5.93-6.82s6.81,2.12,7.15,5.54Z"/>
      <path class="cls-6" d="M749.95,135.79c-.38,2.38-1.66,4.16-2.86,3.97s-1.88-2.28-1.5-4.66c.38-2.38,1.66-4.16,2.86-3.97,1.21.19,1.88,2.28,1.5,4.66Z"/>
      <path class="cls-8" d="M741.9,135.43c.1,1.04-.66,1.96-1.7,2.07-1.04.1-1.96-.66-2.07-1.7-.1-1.04.66-1.96,1.7-2.07s1.96.66,2.07,1.7Z"/>
      <path class="cls-16" d="M728.05,113.44c-3.61-1.1-3.52-6.26.08-7.39,6.78-2.13,18.28-5.39,20.74-3.82,3.54,2.26,9.1,7.41,6.88,9.75-1.6,1.69-18.91,4.16-27.7,1.47Z"/>
      <g>
        <path class="cls-16" d="M656.93,90.08s-11.17-18.4-4.43-38.24C662.77,21.62,696.75.25,699.29,0s18.58,38.57,20.1,45.36c1.53,6.79-48.94,25.33-62.47,44.72Z"/>
        <path class="cls-5" d="M659.87,88.5s-8.24-14-3.39-34.38c4.85-20.38,38.33-49.49,40.88-49.74s19.47,35.46,21,42.25c1.53,6.79-44.96,22.48-58.49,41.87Z"/>
        <path class="cls-8" d="M671.39,42.95c-6.68,12.53-6.66,27.19-6.1,34.56,14.21-10.26,34.63-19.04,45.16-25.28-3.29-17.63-14.34-39.4-14.34-39.4,0,0-15.37,12.59-24.72,30.12Z"/>
        <path class="cls-5" d="M665.37,78.31s4.37-17.37,18.85-27.43l-3.32,9.28,7.33-10.98-1.38,5.35s4.33-8.21,23.6-2.31c0,0-32.95,18.89-45.08,26.08Z"/>
      </g>
      <path class="cls-7" d="M338.74,131.3c9.77-31.76,29.92-44.7,54.17-54.69-23.34-1.48-47.69-3.99-85.1.17-48.06,5.34-70.76,22.62-86.86,41.05-12.88,14.75-19.35,34.34-16.23,53.67,9.26,57.31,91.45,52.52,153.85,54.74,16.51.59,34.18,2.93,51.79,6.06-35.74-20.1-85.21-56.84-71.62-101.01Z"/>
      <path class="cls-4" d="M239.32,104.58s-47.26,35.77-19.66,88.57c27.6,52.81,51.05,61.52,40.09,80.12-10.96,18.6,53.46,37.96,82.36-11.13,28.89-49.09-13.91-69.28-19.85-103.79-5.94-34.51-40.36-79.4-82.93-53.77Z"/>
      <path class="cls-7" d="M322.25,158.35c-5.94-34.51-40.36-79.4-82.93-53.77,0,0-47.26,35.77-19.66,88.57.25.49.51.94.76,1.42-3.67-14.93-2.83-30.06,11.5-37.07,33.21-16.25,66.41,12.38,76.17,46.16,5.71,19.76,27.21,39.39,33.2,59.76.27-.43.55-.83.81-1.28,28.89-49.09-13.91-69.28-19.85-103.79Z"/>
      <path class="cls-7" d="M523.29,121.31s-42.03,13.83-54.34,49.32c0,0,6.05-12.59,37.6-24.66,0,0-25.07,19.12-32.41,42.2l30.25-13.22s-29.82,13.44-37.17,24.01c0,0,3.89-18.82,13.4-33.51l-21.45,18.36s2.19-50.02,64.12-62.5Z"/>
      <path class="cls-4" d="M275.75,125.47l-8.28,14.23-7.37-26.54c-13.9,3.75-16.23,18.41-16.23,18.41,7.7-11.26,13.17-10.77,13.17-10.77-.75,8.72,9.64,26.76,9.64,26.76l10.17-14.05c7.24,5.65,29.15,44.27,29.15,44.27-16.33-41.64-30.25-52.31-30.25-52.31Z"/>
      <path class="cls-4" d="M659.76,103.46s19.46-7.45,35.75-7.43l-10.9,15s32.59-2.69,43.89.03c0,0-32.42-2.63-47.66,4.69,0,0-.74-6.97,5.85-13.32,0,0-14.25-2.5-26.93,1.02Z"/>
      <path class="cls-14" d="M495.18,322.35c-10.6-11.75-17.84-12.99-25.01-23.88-3.72-5.65-9.72-5.39-15.29-3.3,1.87,26.02,4.83,55.25,2.04,72.45-4.46,27.53-9.13,90.04-9.13,90.04,0,0,23.22-1.05,27.44-.03,4.22,1.02,4.82-56.93,14.56-105.32,2.08-10.31,3.82-20.39,5.38-29.97Z"/>
      <path class="cls-14" d="M262.05,402.66s-1.54,16.08,3.38,30.32c4.92,14.24,19.77,12.5,28.79,13.63,9.02,1.14,10.17-14.71,7.64-26.76s-26.35-34.21-39.81-17.19Z"/>
      <path class="cls-14" d="M274.15,297.13c-16.18,4.01-14.27-2.12-16.58-14.21-.77-4.03-5.03-4.6-10.35-3.59-8.82,9.54-19.42,20.39-25.8,24.77-12.45,8.54-6.1,18.73,3.7,33.15,9.8,14.43,37.16,78.72,37.16,78.72l27.08-12.44s-33.16-72.86-30.65-83.9c1.31-5.76,18.73-10.28,38.5-20.31-5.29-2.28-13.6-4.53-23.07-2.19Z"/>
      <path class="cls-12" d="M720.74,175.84s11.09-.87,22.25,4.97c11.17,5.85,31.51,16.22,46.74,16.46,0,0-6.38.4-11.49-.26-5.11-.66-22.32-5.75-28.49-9.92s-19.6-9.36-21.75-8.06-9.38.71-7.26-3.19Z"/>
      <g>
        <path class="cls-12" d="M790.87,177.35c.08.78-1.45,1.56-3.42,1.76-1.96.19-3.62-.28-3.69-1.06-.08-.78,1.45-1.56,3.42-1.76s3.62.28,3.69,1.06Z"/>
        <path class="cls-12" d="M798.98,183.38c.1,1.06-1.09,2.05-2.68,2.21-1.58.16-2.95-.58-3.06-1.64s1.09-2.05,2.68-2.21c1.58-.16,2.95.58,3.06,1.64Z"/>
        <path class="cls-12" d="M786.39,181.98c.04.43-.86.88-2.02.99-1.16.11-2.13-.15-2.17-.58s.86-.88,2.02-.99c1.16-.11,2.13.15,2.17.58Z"/>
        <path class="cls-12" d="M781.61,176.44c.06.62-.97,1.24-2.31,1.37s-2.47-.27-2.53-.89c-.06-.62.97-1.24,2.31-1.37s2.47.27,2.53.89Z"/>
        <path class="cls-12" d="M798.11,175.27c.09.87-1.1,1.7-2.64,1.85-1.54.15-2.87-.43-2.95-1.3-.09-.87,1.1-1.7,2.64-1.85,1.54-.15,2.87.43,2.95,1.3Z"/>
        <path class="cls-12" d="M807.72,180.62c.09.91-.8,1.75-1.99,1.87s-2.22-.53-2.31-1.44c-.09-.91.8-1.75,1.99-1.87s2.22.53,2.31,1.44Z"/>
        <path class="cls-12" d="M796.68,189.37c.07.76-1.01,1.48-2.42,1.62s-2.61-.36-2.69-1.12,1.01-1.48,2.42-1.62c1.41-.14,2.61.36,2.69,1.12Z"/>
      </g>
      <g>
        <g>
          <path class="cls-4" d="M205.27,127.86s-31.64,18.74-86.35,52.6C64.22,214.33,2.86,308.84.42,364.21c-2.43,55.38,54.39,44.04,91.21,23.39,71.44-40.06,72.57-110.95,94.37-140.41,21.8-29.46,23.16-96.47,36.76-109.05,0,0,.27-17.63-17.48-10.28Z"/>
          <path class="cls-8" d="M105.59,366.69c-6.14-.36,8.93-26.59,4.39-26.01-4.54.58-32.45,14.12-43.44,18.18-10.99,4.06-4.03-24.85.34-43.48,4.37-18.63-27.05-8.15-39.08-7.92-3.56.07-4.73-6.32-4.61-15.3C9.75,317.98.97,343.45.08,363.69c-2.44,55.38,54.39,44.03,91.21,23.39,17.99-10.09,31.52-22.14,42.04-34.99-12.63,7.73-24.96,14.76-27.74,14.6Z"/>
          <path class="cls-7" d="M212.52,125.9c-16.76,16.28-34.08,47.8-46.48,95.9-15.01,58.21-57.16,107.99-93.31,134.32-21.9,15.95-41.59,23.3-51.71,18.69-11.61-5.3-16.59-16.36-18.5-27.19-1.19,5.74-1.93,11.23-2.16,16.38-.52,11.92,1.71,20.73,5.88,27.04,15.22,23.01,56.43,12.56,85.33-3.65,71.44-40.06,72.57-110.95,94.37-140.41,21.8-29.46,23.16-96.47,36.76-109.05,0,0,.15-12.28-10.18-12.01Z"/>
        </g>
        <path class="cls-15" d="M152.41,178.01s-63.62,23.04-83.24,66.39l25.13-13.06s-35.07,22.64-40.78,46.25c0,0,33.49-41.76,58-52.11,0,0-7.09-4.27-25.77,3.63,0,0,32.82-37.84,66.66-51.11Z"/>
      </g>
      <path class="cls-15" d="M494.48,217.67c-8.43,5.59-24.09,16.86-27.17,25.43l7.69-3.56c-3.3,2.4-9.63,10.76-12.69,39.74,0,0,4.46-35.16,26.56-45.19l-9.98-.51s9.08-10.34,15.6-15.9Z"/>
      <path class="cls-8" d="M662.97,115.79l6.84,2.07-13.33-14.48c-.57-1.29-1.1-2.59-1.62-3.91l7.17,3.2c-7.46-8.42-8.91-32.77-8.91-32.77l-4.86,2.96-22.21,13.51-9.94,21.72,20.31-6.16-20.31,18.1v19.07l20.2-16.8c-3.06,2.55-23.02,19.43-25.82,28.01,0,0,27.93-6.9,55.16,10.96,8.71,5.72,15.93-4.96,21.11-18.18-9.43-7.72-17.48-16.97-23.79-27.31Z"/>
      <g>
        <path class="cls-9" d="M277.68,428.35s4.78,8.91-.54,15.17c0,0,11.62-3.46.54-15.17Z"/>
        <path class="cls-9" d="M288.38,429.94s4.78,8.91-.55,15.17c0,0,11.62-3.46.55-15.17Z"/>
        <path class="cls-9" d="M295.23,426.43s8.17,5.96,6.08,13.91c0,0,8.97-8.16-6.08-13.91Z"/>
      </g>
      <g>
        <path class="cls-9" d="M481.49,463.13s6.31,7.9,2.2,15.02c0,0,10.8-5.5-2.2-15.02Z"/>
        <path class="cls-9" d="M492.3,462.76s6.31,7.9,2.2,15.02c0,0,10.8-5.5-2.2-15.02Z"/>
        <path class="cls-9" d="M498.4,458.07s9.11,4.39,8.49,12.58c0,0,7.35-9.64-8.49-12.58Z"/>
      </g>
      <g>
        <g>
          <path class="cls-12" d="M834.07,176.81l-.62-.2c3.28-10.16,18.83-9.94,18.99-9.93v.65c-.17,0-15.25-.21-18.38,9.49Z"/>
          <path class="cls-12" d="M836.05,175.94l-.53-.37c6.03-8.81,20.89-4.16,21.04-4.12l-.2.62c-.15-.05-14.54-4.55-20.3,3.86Z"/>
          <path class="cls-12" d="M858.9,176.6c-.13-.08-12.97-7.99-20.63-1.27l-.43-.49c8.02-7.05,21.27,1.12,21.4,1.2l-.34.55Z"/>
        </g>
        <path class="cls-10" d="M832.58,171.06s-11.44,1.19-14.07,5.36,5.3,7.51,9.9,7.93c4.6.42,8.54-1.19,11.88-4.93,3.34-3.74-5.35-8.7-7.71-8.36Z"/>
        <path class="cls-13" d="M828.18,176.72c0,.65-1.6,1.18-3.57,1.18s-3.57-.53-3.57-1.18,1.6-1.18,3.57-1.18,3.57.53,3.57,1.18Z"/>
        <path class="cls-12" d="M818.29,180.1c-3.21.1-15.35,1.08-18.21,9.92l.62.2c2.97-9.19,16.65-9.48,18.2-9.49-.21-.21-.42-.42-.61-.64Z"/>
        <path class="cls-12" d="M819.58,181.34c-3.72.72-14.63,3.57-16.12,12.33l.64.11c1.5-8.84,13.25-11.41,16.16-11.91-.24-.17-.46-.35-.68-.53Z"/>
        <path class="cls-12" d="M820.29,181.9c-4.45,1.63-12.61,5.66-13.09,13.43l.65.04c.47-7.66,8.9-11.56,13.1-13.03-.23-.14-.45-.29-.66-.44Z"/>
      </g>
      <path class="cls-17" d="M577.22,297.7l-2.86,13.78s49.73,47.36,48.03,58.07c-1.7,10.71,10.99,40.97,10.47,45.73-.52,4.76-16.73,23.01,6.67,41.46,16.85,13.29,22.2-15.58,21.92-20.94s-1.75-29.48-1.75-29.48l-5.11-42.41c-.33-2.72-1.32-5.34-2.91-7.63l-46.16-66.82s-23.87.26-28.3,8.23Z"/>
      <g>
        <path class="cls-3" d="M645.78,447.89c7.26-4.57,5.1-14.61,5.1-14.61l-5.1,14.61Z"/>
        <path class="cls-3" d="M658.56,428.58l-1.48,15.35c5.98-6.06,1.48-15.35,1.48-15.35Z"/>
      </g>
      <path class="cls-16" d="M532.83,227.07l-23.63,26.79s8.08-25.31,23.63-26.79Z"/>
    </g>
  </g>
</svg>