<?xml version="1.0" encoding="UTF-8"?>
<svg id="Layer_2" data-name="Layer 2" xmlns="http://www.w3.org/2000/svg" viewBox="0 0 868.9 482.39">
  <defs>
    <style>
      .cls-1 {
        fill: #35352b;
      }

      .cls-1, .cls-2, .cls-3, .cls-4, .cls-5, .cls-6, .cls-7, .cls-8, .cls-9, .cls-10, .cls-11, .cls-12, .cls-13, .cls-14, .cls-15, .cls-16, .cls-17 {
        stroke-width: 0px;
      }

      .cls-2 {
        fill: #7d4f37;
      }

      .cls-3 {
        fill: #300f08;
      }

      .cls-4 {
        fill: #d83d00;
      }

      .cls-5 {
        fill: #e94c01;
      }

      .cls-6 {
        fill: #111103;
      }

      .cls-7 {
        fill: #512718;
        opacity: .11;
      }

      .cls-8, .cls-13 {
        fill: #cda98f;
      }

      .cls-9 {
        fill: #3f1b15;
      }

      .cls-10 {
        fill: #100b08;
      }

      .cls-11 {
        fill: #b59885;
      }

      .cls-12 {
        fill: #986b58;
      }

      .cls-13 {
        opacity: .26;
      }

      .cls-14 {
        fill: #773118;
      }

      .cls-15 {
        fill: #ed612f;
      }

      .cls-16 {
        fill: #bf3100;
      }

      .cls-17 {
        fill: #511c0e;
      }
    </style>
  </defs>
  <g id="pose_5" data-name="pose 5">
    <g>
      <path class="cls-16" d="M410.52,158.15c-6.88-85.99-83.24-68.11-83.24-68.11,0,0-68.79,13.76-52.97,64.67,15.82,50.91,63.29,90.81,59.85,116.26s-78.42,37.6-80.49,51.48c-2.06,13.88,36.46,77.17,35.77,90.24-.69,13.07-8.94,28.21,10.32,35.77,19.26,7.57,24.08-30.27,16.51-59.16-7.57-28.89-19.18-50.29-13.68-53.05,5.5-2.75,59.08-12.31,86.6-35.01,27.52-22.7,28.21-57.1,21.33-143.09Z"/>
      <path class="cls-17" d="M323.77,320.6c5.83-5.21-3.89-10.42-23.66-8.79-19.77,1.63,3.57-6.18,11.02-14.12,2.02-2.15.57-3.34-2.6-3.93-23.09,11.24-53.55,19.37-54.86,28.18-2.06,13.93,36.46,77.48,35.77,90.61-.69,13.12-8.94,28.32,10.32,35.92,19.26,7.6,24.08-30.39,16.51-59.41-7.57-29.01-19.18-50.5-13.68-53.26,2.28-1.14,12.8-3.46,26.29-7.4-4.54-2.64-7.65-5.52-5.11-7.79Z"/>
      <path class="cls-16" d="M540.23,315.45c6.09.16,12.62.57,19.09.43-1.14-24.87-.9-53.97,5.68-61.33,12.03-13.45,33.29-22.99,44.81-46.33,11.52-23.34-37.61-59.82-55.4-38.82,0,0-47.12,38.29-48.4,50.03-.91,8.33,10.45,63.6,17.13,95.03,5.65.46,11.33.82,17.09.97Z"/>
      <path class="cls-17" d="M559.5,455.41s29.95.95,33.96,14.81c4,13.86-19.9,14.08-36.83,9.53s-26.88-11.34-22.55-22.03c4.33-10.69,22.77-5.29,25.41-2.31Z"/>
      <path class="cls-17" d="M518.04,290.06s11.96,97.52,6.22,121.23c-5.75,23.71,8.85,50.25,8.85,50.25l24.7,8.23,1.16-163.45s-17.07-15.78-40.93-16.26Z"/>
      <g>
        <path class="cls-3" d="M583.28,480.75c4.4-7.29-2.07-15.2-2.07-15.2l2.07,15.2Z"/>
        <path class="cls-3" d="M587.72,463.27l5.63,14.23c2.58-8.03-5.63-14.23-5.63-14.23Z"/>
      </g>
      <path class="cls-16" d="M749.14,53.6s39.49-27.19,63.05-27.66c0,0-22.56,34.16-23.91,48.64-1.35,14.48-38.5-13.95-39.15-20.99Z"/>
      <path class="cls-8" d="M785.58,82.04c1.23-13.18,20.02-42.66,23.39-47.85-9.83,5.27-28.06,29.09-29.85,38.59-1.07,5.67,1.75,10.02,4.47,12.77,1.11-.6,1.82-1.73,1.99-3.51Z"/>
      <path class="cls-4" d="M215.56,171.5c-3.12-19.33,3.35-38.93,16.23-53.67,16.1-18.43,38.8-35.71,86.86-41.05,77.8-8.64,138.12,12.17,201.82,2.59,59.08-8.88,72.83,12.03,89.25,12.03s13.83,90.76,18.15,115.83c4.32,25.07-63.1,37.17-76.93,47.54-13.83,10.37-108.91-25.93-181.52-28.53-62.4-2.23-144.59,2.57-153.85-54.74Z"/>
      <path class="cls-8" d="M498.54,208.69c-37.09,5.34-121.74-9.74-121.74-9.74l13.4-1.83-65.93-17.28c-14.1.47,1.02,30.39,10.41,46.82,12.64.39,25.2.56,37.05.99,50.7,1.81,112.74,19.17,150.04,26.49-13.74-23.69-7.21-43.25-23.23-45.45Z"/>
      <path class="cls-4" d="M531.86,377.49c5.45-2.03,10.38-5.79,15.16-8.99,3.91-2.62,7.25-5.29,10.2-8.2-2.51-6.85-4.88-13.79-6.99-20.64-14.52-47.18-32.98-86.41-28.85-99.97,4.13-13.56-8.47-64.23-33.55-52.95,0,0-25.36,59.6-15.31,84.47,10.05,24.87,46.91,71.27,56.12,97.58.92,2.62,2.01,5.56,3.22,8.7Z"/>
      <path class="cls-4" d="M595.02,105.23l3.28-15.05s41.66.35,71.49-12.61c29.82-12.97,43.22-21.61,71.75-17.29,28.53,4.32,48.41,39.33,43.22,70.88-5.19,31.55-77.36,37.95-99.41,57.01-22.04,19.06-60.14,57.1-101.17,52.99-41.02-4.11-7.31-103.52,10.84-135.93Z"/>
      <path class="cls-8" d="M626.62,177.27l18.9-3.4s-28.33,20.72-34.89,25.09h17.45s-33.46,28.32-57.12,35.29c3.06,3.86,7.28,6.35,13.01,6.93,41.03,4.11,79.13-33.93,101.17-52.99,10.51-9.09,32.41-15.3,53.02-22.73-35.91-5.83-85.47-22.03-111.53,11.82Z"/>
      <path class="cls-11" d="M633.16,169.65c12.97-1.21,27.5-2.17,33.89-1.2l-13.33,11.37,29.08-2.58-17.97,6.54s11.99-.84,25.31.36c11.61-7.01,29.93-12.43,47.35-18.71-32.84-5.34-77.08-19.31-104.34,4.22Z"/>
      <path class="cls-5" d="M709.57,45.96s-49.96,14.46-54.04,48.19c-4.08,33.73,11.54,70.15,37.15,78.74,25.61,8.59,49.33,5.01,64.64,14.77,15.31,9.76,49.91,13.29,64.96,6.26,15.05-7.04,26.66-16.05,25.88-19.21-.77-3.16-20.41-19.28-36.76-34.8-16.34-15.52-16.65-23.36-11.67-43.29,4.98-19.93-31.12-71.56-90.16-50.65Z"/>
      <path class="cls-8" d="M738.22,140.77c-44.27,5.65-69.08-8.17-82.38-21.5,3.83,24.96,17.43,47.17,36.7,53.63,25.61,8.59,49.33,5.01,64.64,14.77,15.31,9.76,49.91,13.29,64.96,6.26,6.04-2.82,11.51-5.96,15.86-8.92-11.99-9.97-62.7-48.97-99.77-44.24Z"/>
      <path class="cls-2" d="M743.74,132.34s18.93-5.72,21.25-4.21c2.32,1.51,3.71,8.48,7.09,9.67,3.37,1.19,4.32,3.86,3.03,3.99-1.29.13-1.16-2.65-3.08-2.3-1.92.35-23.71,7.87-28.28-7.15Z"/>
      <ellipse class="cls-1" cx="757.74" cy="135.36" rx="6.57" ry="6.21" transform="translate(-9.62 74.99) rotate(-5.63)"/>
      <path class="cls-6" d="M760.67,135.79c-.38,2.38-1.66,4.16-2.86,3.97-1.21-.19-1.88-2.28-1.5-4.66.38-2.38,1.66-4.16,2.86-3.97,1.21.19,1.88,2.28,1.5,4.66Z"/>
      <path class="cls-8" d="M752.62,135.43c.1,1.04-.66,1.96-1.7,2.07-1.04.1-1.96-.66-2.07-1.7-.1-1.04.66-1.96,1.7-2.07s1.96.66,2.07,1.7Z"/>
      <path class="cls-16" d="M738.77,113.44c-3.61-1.1-3.52-6.26.08-7.39,6.78-2.13,18.28-5.39,20.74-3.82,3.54,2.26,9.1,7.41,6.88,9.75-1.6,1.69-18.91,4.16-27.7,1.47Z"/>
      <g>
        <path class="cls-16" d="M667.65,90.08s-11.17-18.4-4.43-38.24C673.49,21.62,707.47.25,710.01,0s18.57,38.57,20.1,45.36c1.53,6.79-48.94,25.33-62.47,44.72Z"/>
        <path class="cls-5" d="M670.59,88.5s-8.24-14-3.39-34.38c4.85-20.38,38.33-49.49,40.88-49.74s19.47,35.46,21,42.25-44.96,22.48-58.49,41.87Z"/>
        <path class="cls-8" d="M682.11,42.95c-6.68,12.53-6.66,27.19-6.1,34.56,14.21-10.25,34.63-19.04,45.16-25.28-3.29-17.63-14.34-39.4-14.34-39.4,0,0-15.37,12.59-24.72,30.12Z"/>
        <path class="cls-5" d="M676.09,78.31s4.37-17.37,18.85-27.43l-3.32,9.28,7.33-10.98-1.38,5.35s4.33-8.21,23.6-2.31c0,0-32.95,18.89-45.08,26.08Z"/>
      </g>
      <path class="cls-7" d="M349.46,131.3c9.77-31.76,29.92-44.7,54.17-54.69-23.34-1.48-47.69-3.99-85.1.17-48.06,5.34-70.76,22.62-86.86,41.05-12.88,14.75-19.35,34.34-16.23,53.67,9.26,57.31,91.45,52.52,153.85,54.74,16.51.59,34.18,2.93,51.79,6.06-35.74-20.1-85.21-56.84-71.62-101.01Z"/>
      <path class="cls-4" d="M254.66,101.74s-65.65,30.77-43.71,86.18c21.93,55.4,59.25,66.38,46.4,83.73-12.85,17.35,49.2,43.34,83.07-2.47,33.87-45.8-6.6-70.36-8.9-105.3-2.3-34.94-31.84-83.18-76.86-62.14Z"/>
      <path class="cls-7" d="M331.52,163.88c-2.3-34.94-33.63-82.51-78.65-61.47,0,0-63.12,31.42-41.19,86.82.2.51.4.99.61,1.49-2.09-15.23,14.5-31.65,29.48-37.13,34.73-12.69,64.75,19.25,70.93,53.86,3.61,20.25,22.95,42.02,26.78,62.9.31-.4.64-.77.94-1.18,33.87-45.8-6.6-70.36-8.9-105.3Z"/>
      <path class="cls-7" d="M534.01,121.31s-42.03,13.83-54.34,49.32c0,0,6.05-12.59,37.6-24.66,0,0-25.07,19.12-32.42,42.2l30.25-13.22s-29.82,13.43-37.17,24.01c0,0,3.89-18.82,13.4-33.51l-21.45,18.36s2.19-50.02,64.12-62.5Z"/>
      <path class="cls-4" d="M288.71,126.32l-9.72,13.29-4.56-27.17c-14.22,2.27-18.07,16.61-18.07,16.61,8.83-10.39,14.22-9.34,14.22-9.34-1.66,8.6,6.79,27.62,6.79,27.62l11.58-12.91c6.61,6.38,24.36,47.07,24.36,47.07-11.88-43.12-24.62-55.18-24.62-55.18Z"/>
      <path class="cls-4" d="M670.48,103.46s19.46-7.45,35.75-7.43l-10.9,15s32.59-2.69,43.89.03c0,0-32.42-2.63-47.66,4.69,0,0-.74-6.97,5.85-13.32,0,0-14.25-2.5-26.93,1.02Z"/>
      <path class="cls-14" d="M531.59,377.3c5.26-2.07,10.03-5.7,14.67-8.81,4.1-2.75,7.56-5.56,10.62-8.64-2.47-6.77-4.82-13.62-6.9-20.39-3.1-10.05-6.37-19.74-9.57-28.91-14.93-5.27-21.88-2.9-33.37-9.05-5.97-3.19-11.11-.1-15.02,4.39,14.06,21.97,30.61,46.25,36.37,62.7.92,2.62,2,5.56,3.21,8.7Z"/>
      <path class="cls-14" d="M207.22,444.05c-2.16,4.25-.48,9.46,3.63,11.89,3.96,2.35,9.99,5.81,17.28,9.65,13.33,7.02,29.62,10.82,33.66-3.36,3.43-12.01-5.2-17.03-15.29-24.1-8.48-5.94-32.81-6.8-39.28,5.92Z"/>
      <path class="cls-12" d="M731.46,175.84s11.09-.87,22.25,4.97c11.17,5.85,31.51,16.22,46.74,16.46,0,0-6.38.4-11.49-.26-5.11-.66-22.32-5.75-28.49-9.92-6.16-4.17-19.6-9.36-21.75-8.06-2.15,1.3-9.38.71-7.26-3.19Z"/>
      <g>
        <path class="cls-12" d="M795.4,173.9c.07.76-1.42,1.52-3.33,1.71-1.92.19-3.53-.27-3.6-1.03-.07-.76,1.42-1.52,3.33-1.71,1.92-.19,3.53.27,3.6,1.03Z"/>
        <path class="cls-12" d="M803.3,179.78c.1,1.04-1.07,2-2.61,2.15-1.54.15-2.88-.56-2.98-1.6-.1-1.04,1.07-2,2.61-2.15,1.54-.15,2.88.56,2.98,1.6Z"/>
        <path class="cls-12" d="M790.78,178.32c.04.43-.86.88-2.02.99-1.16.11-2.13-.15-2.17-.58-.04-.43.86-.88,2.02-.99,1.16-.11,2.13.15,2.17.58Z"/>
        <path class="cls-12" d="M786,172.79c.06.62-.97,1.24-2.31,1.37s-2.47-.27-2.53-.89c-.06-.62.97-1.24,2.31-1.37s2.47.27,2.53.89Z"/>
        <path class="cls-12" d="M802.5,171.61c.09.87-1.1,1.7-2.64,1.85-1.54.15-2.87-.43-2.95-1.3-.09-.87,1.1-1.7,2.64-1.85,1.54-.15,2.87.43,2.95,1.3Z"/>
        <path class="cls-12" d="M811.83,177.09c.09.89-.78,1.71-1.94,1.82-1.16.11-2.17-.52-2.26-1.41s.78-1.71,1.94-1.82c1.16-.11,2.17.52,2.26,1.41Z"/>
        <path class="cls-12" d="M801.07,185.72c.07.76-1.01,1.48-2.42,1.62-1.41.14-2.61-.36-2.69-1.12-.07-.76,1.01-1.48,2.42-1.62,1.41-.14,2.61.36,2.69,1.12Z"/>
      </g>
      <g>
        <g>
          <path class="cls-4" d="M216.43,128.59s-32.49,17.22-88.74,48.47C71.45,208.3,5.68,299.8.63,355c-5.05,55.2,52.25,46.56,90,27.67,73.25-36.64,77.73-107.39,100.9-135.79,23.17-28.4,27.69-95.27,41.87-107.19,0,0,1.1-17.6-16.98-11.09Z"/>
          <path class="cls-8" d="M105.56,362.44c-6.12-.65,10.18-26.14,5.61-25.77-4.57.36-33.08,12.57-44.25,16.11-11.17,3.54-2.85-25.02,2.39-43.42,5.24-18.4-26.63-9.42-38.66-9.76-3.56-.1-4.42-6.53-3.89-15.5-14.64,25.16-24.62,50.19-26.46,70.36-5.05,55.2,52.25,46.56,90,27.67,18.45-9.23,32.53-20.62,43.65-32.96-12.98,7.12-25.63,13.57-28.4,13.27Z"/>
          <path class="cls-7" d="M223.75,126.97c-17.51,15.47-36.3,46.14-50.96,93.59-17.74,57.44-62.2,105.17-99.55,129.76-22.63,14.9-42.65,21.31-52.53,16.22-11.35-5.84-15.79-17.12-17.19-28.04-1.46,5.68-2.46,11.13-2.93,16.26-1.09,11.88.73,20.78,4.6,27.28,14.12,23.71,55.77,15.21,85.4.39,73.25-36.64,77.73-107.39,100.9-135.79,23.17-28.4,27.69-95.27,41.87-107.19,0,0,.73-12.26-9.6-12.48Z"/>
        </g>
        <path class="cls-15" d="M161.25,176.18s-64.63,20.01-86.29,62.39l25.71-11.85s-36.1,20.96-42.92,44.28c0,0,35.42-40.13,60.4-49.31,0,0-6.88-4.6-25.91,2.41,0,0,34.57-36.25,69-47.91Z"/>
      </g>
      <path class="cls-15" d="M490.61,218.9c-4.75,8.93-13.13,26.31-11.74,35.31l5.06-6.8c-1.75,3.69-3.33,14.05,7.81,40.98,0,0-12.85-33.03,1.78-52.39l-9.02,4.32s3.05-13.42,6.12-21.41Z"/>
      <path class="cls-8" d="M673.69,115.79l6.84,2.07-13.33-14.48c-.57-1.29-1.1-2.59-1.62-3.91l7.17,3.2c-7.46-8.42-8.91-32.77-8.91-32.77l-4.86,2.96-22.21,13.51-9.94,21.72,20.31-6.16-20.31,18.1v19.07l20.2-16.8c-3.06,2.55-23.02,19.43-25.82,28.01,0,0,27.93-6.9,55.16,10.96,8.71,5.72,15.93-4.96,21.11-18.18-9.43-7.72-17.48-16.97-23.79-27.31Z"/>
      <g>
        <path class="cls-9" d="M243.56,456.25s9.62,3.06,10.38,9.77c0,0,5.57-8.26-10.38-9.77Z"/>
        <path class="cls-9" d="M250.36,451.21s9.62,3.06,10.38,9.77c0,0,5.57-8.26-10.38-9.77Z"/>
        <path class="cls-9" d="M248.74,448.31s9.87-.56,14.07,5.5c0,0,.42-9.8-14.07-5.5Z"/>
      </g>
      <path class="cls-16" d="M542.68,228.76l-25.53,24.99s9.92-24.65,25.53-24.99Z"/>
      <path class="cls-14" d="M526.48,365.28s6.58,13.84-4.24,28.19c-10.82,14.35-22.92,25.2-25.41,35.27-2.49,10.07,4.81,22.34,13.31,20.73,8.5-1.61,11.18-16.04,22.48-24.84,11.3-8.8,15.45-14.93,22.06-28.03,6.61-13.1,9.77-16.56-1.23-44.8-11-28.24-39.17-7.33-26.97,13.47"/>
      <path class="cls-4" d="M257.5,255.73s-9.32,18.78-20.33,29.36c-11.01,10.58-37.56,25.09-38.73,40.8-1.17,15.71,7.02,121.51,7.02,121.51l26.18,2.06s3.13-53.16,8.44-86.25c5.32-33.09,17.49-44.65,39.36-50.64,21.87-6,45.62-21.75,49.17-31.62,3.56-9.87-71.11-25.21-71.11-25.21Z"/>
      <path class="cls-14" d="M268.69,306.41c-10.95-6.21-24.13-3.17-29.14-13.72-1.25-2.63-3.37-3.89-5.85-4.31-12.32,10.21-34,23.4-35.06,37.57-1.17,15.71,7.02,121.51,7.02,121.51l26.18,2.06s3.13-53.16,8.44-86.25c4.98-31.01,15.99-43.11,35.34-49.44-1.35-2.78-3.51-5.47-6.94-7.41Z"/>
      <g>
        <path class="cls-9" d="M511.25,427.41s-5.03,8.76-11.74,8.08c0,0,6.89,7.19,11.74-8.08Z"/>
        <path class="cls-9" d="M514.74,435.12s-5.03,8.76-11.74,8.08c0,0,6.89,7.19,11.74-8.08Z"/>
        <path class="cls-9" d="M517.92,434.15s-1.54,9.77-8.35,12.58c0,0,9.5,2.48,8.35-12.58Z"/>
      </g>
      <path class="cls-10" d="M301.2,447.51c6.36,3.49,11.79-4.37,11.79-4.37-1.78,1.39-11.79,4.37-11.79,4.37Z"/>
      <path class="cls-10" d="M295.3,443.68c6.36,3.49,11.79-4.37,11.79-4.37-1.78,1.39-11.79,4.37-11.79,4.37Z"/>
      <g>
        <g>
          <path class="cls-12" d="M843.72,174.32l-.62-.2c3.28-10.16,18.83-9.94,18.99-9.93v.65c-.17,0-15.25-.21-18.38,9.49Z"/>
          <path class="cls-12" d="M845.7,173.45l-.53-.37c6.03-8.81,20.89-4.16,21.04-4.12l-.2.62c-.15-.05-14.54-4.55-20.3,3.86Z"/>
          <path class="cls-12" d="M868.55,174.1c-.13-.08-12.97-7.99-20.63-1.26l-.43-.49c8.02-7.05,21.27,1.12,21.4,1.2l-.34.55Z"/>
        </g>
        <path class="cls-10" d="M842.24,168.57s-11.44,1.19-14.07,5.36c-2.63,4.17,5.3,7.51,9.9,7.93,4.6.42,8.54-1.19,11.88-4.93,3.34-3.74-5.35-8.7-7.71-8.36Z"/>
        <path class="cls-13" d="M837.83,174.23c0,.65-1.6,1.18-3.57,1.18s-3.57-.53-3.57-1.18,1.6-1.18,3.57-1.18,3.57.53,3.57,1.18Z"/>
        <path class="cls-12" d="M827.94,177.6c-3.21.1-15.35,1.08-18.21,9.92l.62.2c2.97-9.19,16.65-9.48,18.2-9.49-.21-.21-.42-.42-.61-.64Z"/>
        <path class="cls-12" d="M829.23,178.85c-3.72.72-14.63,3.57-16.12,12.33l.64.11c1.5-8.84,13.25-11.41,16.16-11.91-.24-.17-.46-.35-.68-.53Z"/>
        <path class="cls-12" d="M829.95,179.4c-4.45,1.63-12.61,5.66-13.09,13.43l.65.04c.47-7.66,8.9-11.56,13.1-13.03-.23-.14-.45-.29-.66-.44Z"/>
      </g>
    </g>
  </g>
</svg>