<?xml version="1.0" encoding="UTF-8"?>
<svg id="Layer_2" data-name="Layer 2" xmlns="http://www.w3.org/2000/svg" viewBox="0 0 868.9 485.06">
  <defs>
    <style>
      .cls-1 {
        fill: #35352b;
      }

      .cls-1, .cls-2, .cls-3, .cls-4, .cls-5, .cls-6, .cls-7, .cls-8, .cls-9, .cls-10, .cls-11, .cls-12, .cls-13, .cls-14, .cls-15, .cls-16, .cls-17 {
        stroke-width: 0px;
      }

      .cls-2 {
        fill: #7d4f37;
      }

      .cls-3 {
        fill: #300f08;
      }

      .cls-4 {
        fill: #d83d00;
      }

      .cls-5 {
        fill: #e94c01;
      }

      .cls-6 {
        fill: #111103;
      }

      .cls-7 {
        fill: #512718;
        opacity: .11;
      }

      .cls-8, .cls-13 {
        fill: #cda98f;
      }

      .cls-9 {
        fill: #3f1b15;
      }

      .cls-10 {
        fill: #100b08;
      }

      .cls-11 {
        fill: #b59885;
      }

      .cls-12 {
        fill: #986b58;
      }

      .cls-13 {
        opacity: .26;
      }

      .cls-14 {
        fill: #773118;
      }

      .cls-15 {
        fill: #ed612f;
      }

      .cls-16 {
        fill: #bf3100;
      }

      .cls-17 {
        fill: #511c0e;
      }
    </style>
  </defs>
  <g id="pose_6" data-name="pose 6">
    <g>
      <g>
        <path class="cls-16" d="M545.53,386.76c5.81.35,11.84-1.09,17.5-2.09,4.63-.82,8.77-1.91,12.65-3.37.48-7.28,1.11-14.58,1.96-21.7,5.81-49.02,4.8-92.37,14.07-103.1,9.27-10.73,18.24-62.17-9.26-62,0,0-47.31,44.24-48.18,71.05-.87,26.81,14.06,84.15,11.84,111.95-.22,2.77-.41,5.89-.57,9.26Z"/>
        <path class="cls-17" d="M545.36,386.48c5.65.24,11.48-1.15,16.98-2.12,4.86-.86,9.16-2.03,13.21-3.61.48-7.19,1.1-14.41,1.94-21.44,1.24-10.45,2.17-20.63,2.95-30.3-11.52-10.86-18.83-11.51-26.86-21.78-4.17-5.34-10.12-4.59-15.51-2.06,3.97,25.78,9.27,54.68,7.88,72.05-.22,2.77-.42,5.89-.59,9.25Z"/>
        <path class="cls-17" d="M545.55,373.41s.41,15.32-15.29,24.07-31.15,13.77-37.51,21.98c-6.35,8.2-4.64,22.37,3.78,24.34s16.71-10.14,30.6-13.62c13.89-3.47,20.17-7.4,31.52-16.71,11.35-9.31,15.63-11.19,17-41.47,1.37-30.28-32.86-22.55-30.12,1.41"/>
        <g>
          <path class="cls-9" d="M506.48,424.07s-8.14,5.97-14.01,2.64c0,0,3.39,9.37,14.01-2.64Z"/>
          <path class="cls-9" d="M506.55,432.53s-8.14,5.97-14.01,2.64c0,0,3.39,9.37,14.01-2.64Z"/>
          <path class="cls-9" d="M509.85,432.93s-5.36,8.31-12.73,8.13c0,0,7.68,6.11,12.73-8.13Z"/>
        </g>
      </g>
      <path class="cls-16" d="M326.48,89.86s-97.11,19.57-67.43,79.69,50.71,61.73,50.71,105.07-21.41,59.97-13.02,78.15c8.39,18.17,54.37,100.58,54.37,100.58l28.56-5.59s-31.89-71.3-28.56-109.05,41.9-20.85,45.73-130.02c2.46-70.16-38.55-129.37-70.36-118.83Z"/>
      <path class="cls-17" d="M353.3,319.83c-5.19-8.64-14.7-7.78-25.5-2.81-10.8,4.97-10.37-1.51-14.69-10.16-1.36-2.72-4.1-2.91-7.21-1.9-5.76,22.67-15.81,34.79-9.65,48.14,8.39,18.17,55.35,101.34,55.35,101.34l28.56-5.59s-31.89-71.3-28.56-109.05c.6-6.84,2.37-11.88,4.87-16.2-1.26-1.18-2.36-2.44-3.16-3.78Z"/>
      <g>
        <g>
          <path class="cls-4" d="M216.43,128.59s-32.49,17.22-88.74,48.46C71.45,208.3,5.68,299.8.63,354.99c-5.05,55.2,52.25,46.56,90,27.67,73.25-36.64,77.73-107.39,100.9-135.79,23.17-28.4,27.69-95.27,41.87-107.19,0,0,1.1-17.6-16.98-11.09Z"/>
          <path class="cls-8" d="M105.56,362.44c-6.12-.65,10.18-26.14,5.61-25.77-4.57.36-33.08,12.57-44.25,16.11-11.17,3.54-2.85-25.02,2.39-43.42,5.24-18.4-26.63-9.42-38.66-9.76-3.56-.1-4.42-6.53-3.89-15.5-14.64,25.16-24.62,50.19-26.46,70.36-5.05,55.2,52.25,46.56,90,27.67,18.45-9.23,32.53-20.62,43.65-32.96-12.98,7.12-25.63,13.57-28.4,13.27Z"/>
          <path class="cls-7" d="M223.76,126.97c-17.51,15.47-36.3,46.14-50.96,93.59-17.74,57.44-62.2,105.17-99.55,129.76-22.63,14.9-42.65,21.31-52.53,16.22-11.35-5.84-15.79-17.12-17.19-28.04-1.46,5.68-2.46,11.13-2.93,16.26-1.09,11.88.73,20.78,4.6,27.28,14.12,23.71,55.77,15.21,85.4.39,73.25-36.64,77.73-107.39,100.9-135.79,23.17-28.4,27.69-95.27,41.87-107.19,0,0,.73-12.26-9.6-12.48Z"/>
        </g>
        <path class="cls-15" d="M161.25,176.18s-64.63,20.01-86.29,62.39l25.71-11.85s-36.1,20.96-42.92,44.28c0,0,35.42-40.13,60.4-49.31,0,0-6.88-4.6-25.91,2.41,0,0,34.57-36.25,69-47.91Z"/>
      </g>
      <path class="cls-17" d="M378.54,447.84s31.79-3.11,37.92,10.99c6.13,14.1-19.1,17.61-37.62,15.13-18.51-2.49-29.97-8.3-26.85-20.19,3.12-11.89,23.34-8.71,26.54-5.93Z"/>
      <g>
        <path class="cls-3" d="M407.14,471.36c3.66-8.31-4.27-15.78-4.27-15.78l4.27,15.78Z"/>
        <path class="cls-3" d="M409.44,452.27l7.91,14.27c1.63-8.84-7.91-14.27-7.91-14.27Z"/>
      </g>
      <path class="cls-16" d="M749.14,53.6s39.49-27.19,63.05-27.66c0,0-22.56,34.16-23.91,48.64s-38.5-13.95-39.15-20.99Z"/>
      <path class="cls-8" d="M785.58,82.04c1.23-13.18,20.02-42.66,23.39-47.85-9.83,5.27-28.06,29.09-29.85,38.59-1.07,5.67,1.75,10.02,4.47,12.77,1.11-.6,1.82-1.73,1.99-3.51Z"/>
      <path class="cls-4" d="M215.56,171.5c-3.12-19.33,3.35-38.93,16.23-53.67,16.1-18.43,38.8-35.71,86.86-41.05,77.8-8.64,138.12,12.17,201.82,2.59,59.08-8.88,72.83,12.03,89.25,12.03s13.83,90.76,18.15,115.83c4.32,25.07-63.1,37.17-76.93,47.54-13.83,10.37-108.91-25.93-181.52-28.53-62.4-2.23-144.59,2.57-153.85-54.74Z"/>
      <path class="cls-8" d="M498.54,208.69c-37.09,5.34-121.74-9.74-121.74-9.74l13.4-1.83-65.93-17.28c-14.1.47,1.02,30.39,10.41,46.82,12.64.39,25.2.56,37.05.99,50.7,1.81,112.74,19.17,150.04,26.49-13.74-23.69-7.21-43.25-23.23-45.45Z"/>
      <path class="cls-4" d="M595.02,105.23l3.28-15.05s41.66.35,71.49-12.61c29.82-12.97,43.22-21.61,71.75-17.29,28.53,4.32,48.41,39.33,43.22,70.88-5.19,31.55-77.36,37.95-99.41,57.01-22.04,19.06-60.14,57.1-101.17,52.99-41.02-4.11-7.31-103.52,10.84-135.93Z"/>
      <path class="cls-8" d="M626.62,177.27l18.9-3.4s-28.33,20.72-34.89,25.09h17.45s-33.46,28.32-57.12,35.29c3.06,3.86,7.28,6.35,13.01,6.93,41.03,4.11,79.13-33.93,101.17-52.99,10.51-9.09,32.41-15.3,53.02-22.73-35.91-5.83-85.47-22.03-111.53,11.82Z"/>
      <path class="cls-11" d="M633.16,169.65c12.97-1.21,27.5-2.17,33.89-1.2l-13.33,11.37,29.08-2.58-17.97,6.54s11.99-.84,25.31.36c11.61-7.01,29.93-12.43,47.35-18.71-32.84-5.34-77.08-19.31-104.34,4.22Z"/>
      <path class="cls-5" d="M709.57,45.96s-49.96,14.46-54.04,48.19c-4.08,33.73,11.54,70.15,37.15,78.74,25.61,8.59,49.33,5.01,64.64,14.77,15.31,9.76,49.91,13.29,64.96,6.26,15.05-7.04,26.66-16.05,25.88-19.21-.77-3.16-20.42-19.28-36.76-34.8-16.34-15.52-16.65-23.36-11.67-43.29,4.98-19.93-31.12-71.56-90.16-50.65Z"/>
      <path class="cls-8" d="M738.22,140.77c-44.27,5.65-69.08-8.17-82.38-21.5,3.83,24.96,17.43,47.17,36.7,53.63,25.61,8.59,49.33,5.01,64.64,14.77,15.31,9.76,49.91,13.29,64.96,6.26,6.04-2.82,11.51-5.96,15.86-8.92-11.99-9.97-62.7-48.97-99.77-44.24Z"/>
      <path class="cls-2" d="M743.74,132.34s18.93-5.72,21.25-4.21c2.32,1.51,3.71,8.48,7.09,9.67s4.32,3.86,3.03,3.99c-1.29.13-1.16-2.65-3.08-2.3-1.92.35-23.71,7.87-28.28-7.15Z"/>
      <path class="cls-1" d="M764.27,134.72c.34,3.41-2.32,6.47-5.93,6.82-3.61.36-6.81-2.12-7.15-5.54-.34-3.41,2.32-6.47,5.93-6.82,3.61-.36,6.81,2.12,7.15,5.54Z"/>
      <ellipse class="cls-6" cx="758.49" cy="135.44" rx="4.37" ry="2.21" transform="translate(506.36 863.51) rotate(-81.02)"/>
      <path class="cls-8" d="M752.62,135.43c.1,1.04-.66,1.96-1.7,2.07-1.04.1-1.96-.66-2.07-1.7-.1-1.04.66-1.96,1.7-2.07,1.04-.1,1.96.66,2.07,1.7Z"/>
      <path class="cls-16" d="M738.77,113.44c-3.61-1.1-3.52-6.26.08-7.39,6.78-2.13,18.28-5.39,20.74-3.82,3.54,2.26,9.1,7.41,6.88,9.75-1.6,1.69-18.91,4.16-27.7,1.46Z"/>
      <g>
        <path class="cls-16" d="M667.65,90.08s-11.17-18.4-4.43-38.24C673.49,21.62,707.47.25,710.01,0s18.58,38.56,20.1,45.36c1.53,6.79-48.94,25.33-62.47,44.72Z"/>
        <path class="cls-5" d="M670.59,88.5s-8.24-14-3.39-34.38c4.85-20.38,38.33-49.49,40.88-49.74s19.47,35.46,21,42.25c1.53,6.79-44.96,22.48-58.49,41.87Z"/>
        <path class="cls-8" d="M682.11,42.95c-6.68,12.53-6.66,27.19-6.1,34.56,14.21-10.26,34.63-19.04,45.16-25.28-3.29-17.63-14.34-39.4-14.34-39.4,0,0-15.37,12.59-24.72,30.12Z"/>
        <path class="cls-5" d="M676.09,78.31s4.37-17.37,18.85-27.43l-3.32,9.28,7.33-10.98-1.38,5.35s4.33-8.21,23.6-2.31c0,0-32.95,18.89-45.08,26.08Z"/>
      </g>
      <path class="cls-7" d="M349.46,131.3c9.77-31.76,29.92-44.7,54.17-54.69-23.34-1.48-47.69-3.99-85.1.17-48.06,5.34-70.76,22.62-86.86,41.05-12.88,14.75-19.35,34.34-16.23,53.67,9.26,57.31,91.45,52.52,153.85,54.74,16.51.59,34.18,2.93,51.79,6.06-35.74-20.1-85.21-56.84-71.62-101.01Z"/>
      <path class="cls-4" d="M288.39,100.25s-72.44-2.95-78.52,56.32c-6.08,59.27,16.74,69.45,7.24,88.9-16.44,33.66,19.03,67.93,70.19,42.9,51.17-25.03,26.58-65.48,40.65-97.54,14.06-32.07,10.09-88.49-39.56-90.58Z"/>
      <path class="cls-7" d="M327.95,190.82c14.06-32.07,8.19-88.72-41.46-90.8,0,0-70.5-1.21-76.57,58.06-.06.55-.1,1.06-.15,1.6,5.17-14.48,27.46-21.41,43.28-19.36,36.67,4.74,48.58,46.93,38.11,80.5-6.13,19.64.99,47.87-5.24,68.16.46-.21.92-.39,1.38-.62,51.17-25.03,26.58-65.48,40.65-97.54Z"/>
      <path class="cls-7" d="M534.01,121.31s-42.03,13.83-54.34,49.32c0,0,6.05-12.59,37.6-24.66,0,0-25.07,19.12-32.42,42.2l30.25-13.22s-29.82,13.43-37.17,24.01c0,0,3.89-18.82,13.4-33.51l-21.45,18.36s2.19-50.02,64.12-62.5Z"/>
      <path class="cls-4" d="M307.27,137.76l-14.75,7.31,8.48-26.21c-13.66-4.54-23.69,6.41-23.69,6.41,12.63-5.15,16.93-1.73,16.93-1.73-5.44,6.87-6.7,27.64-6.7,27.64l16.23-6.11c2.93,8.71-.08,53.01-.08,53.01,9.33-43.74,3.6-60.32,3.6-60.32Z"/>
      <path class="cls-4" d="M670.48,103.46s19.46-7.45,35.75-7.43l-10.9,15s32.59-2.69,43.89.03c0,0-32.42-2.63-47.66,4.69,0,0-.74-6.97,5.85-13.32,0,0-14.25-2.5-26.93,1.02Z"/>
      <path class="cls-14" d="M174.98,432.72c-3.68-3.03-9.14-2.5-12.39.98-3.15,3.36-7.82,8.5-13.14,14.8-9.73,11.51-16.94,26.6-3.96,33.6,10.99,5.93,17.75-1.41,26.82-9.74,7.63-7,13.7-30.58,2.67-39.63Z"/>
      <path class="cls-12" d="M731.46,175.84s11.09-.87,22.25,4.97c11.17,5.85,31.51,16.22,46.74,16.46,0,0-6.38.4-11.49-.26-5.11-.66-22.32-5.75-28.49-9.92s-19.6-9.36-21.75-8.06c-2.15,1.3-9.38.71-7.26-3.19Z"/>
      <g>
        <path class="cls-12" d="M795.4,173.9c.07.76-1.42,1.52-3.33,1.71-1.92.19-3.53-.27-3.6-1.03s1.42-1.52,3.33-1.71c1.92-.19,3.53.27,3.6,1.03Z"/>
        <path class="cls-12" d="M803.3,179.78c.1,1.04-1.07,2-2.61,2.15s-2.88-.56-2.98-1.6c-.1-1.04,1.07-2,2.61-2.15s2.88.56,2.98,1.6Z"/>
        <path class="cls-12" d="M790.78,178.32c.04.43-.86.88-2.02.99-1.16.11-2.13-.15-2.17-.58-.04-.43.86-.88,2.02-.99,1.16-.11,2.13.15,2.17.58Z"/>
        <path class="cls-12" d="M786,172.79c.06.62-.97,1.24-2.31,1.37s-2.47-.27-2.53-.89.97-1.24,2.31-1.37,2.47.27,2.53.89Z"/>
        <path class="cls-12" d="M802.5,171.61c.09.87-1.1,1.7-2.64,1.85s-2.87-.43-2.95-1.3c-.09-.87,1.1-1.7,2.64-1.85,1.54-.15,2.87.43,2.95,1.3Z"/>
        <path class="cls-12" d="M811.83,177.09c.09.89-.78,1.71-1.94,1.82-1.16.11-2.17-.52-2.26-1.41-.09-.89.78-1.71,1.94-1.82,1.16-.11,2.17.52,2.26,1.41Z"/>
        <path class="cls-12" d="M801.07,185.72c.07.76-1.01,1.48-2.42,1.62-1.41.14-2.61-.36-2.69-1.12-.07-.76,1.01-1.48,2.42-1.62,1.41-.14,2.61.36,2.69,1.12Z"/>
      </g>
      <path class="cls-8" d="M673.69,115.79l6.84,2.07-13.33-14.48c-.57-1.29-1.1-2.59-1.62-3.91l7.17,3.2c-7.46-8.42-8.91-32.77-8.91-32.77l-4.86,2.96-22.21,13.51-9.94,21.72,20.31-6.16-20.31,18.1v19.07l20.2-16.8c-3.06,2.55-23.02,19.43-25.82,28.01,0,0,27.93-6.9,55.16,10.96,8.71,5.72,15.93-4.96,21.11-18.18-9.43-7.72-17.48-16.97-23.79-27.31Z"/>
      <g>
        <path class="cls-9" d="M155.25,465.58s-5.06,8.74-11.77,8.04c0,0,6.87,7.22,11.77-8.04Z"/>
        <path class="cls-9" d="M158.71,473.31s-5.06,8.74-11.77,8.04c0,0,6.87,7.22,11.77-8.04Z"/>
        <path class="cls-9" d="M161.89,472.35s-1.58,9.76-8.4,12.55c0,0,9.49,2.52,8.4-12.55Z"/>
      </g>
      <path class="cls-4" d="M217.11,246.49s-13.96,26.78-25.4,36.9c-11.44,10.11-38.57,23.51-40.39,39.15-1.82,15.64,1.97,121.7,1.97,121.7l26.07,3.14s5.33-52.98,12.02-85.82c6.69-32.84,19.33-43.88,41.43-48.97,22.1-5.08,46.48-19.83,50.44-29.55,3.96-9.72-66.13-36.55-66.13-36.55Z"/>
      <path class="cls-14" d="M222.31,306c-10.68-6.66-23.98-4.17-28.55-14.92-1.14-2.68-3.21-4.03-5.67-4.55-12.74,9.69-34.94,21.97-36.59,36.08-1.82,15.64,1.97,121.7,1.97,121.7l26.07,3.14s5.33-52.98,12.01-85.82c6.26-30.78,17.76-42.41,37.37-47.93-1.23-2.83-3.28-5.61-6.62-7.69Z"/>
      <g>
        <g>
          <path class="cls-12" d="M843.72,174.32l-.62-.2c3.28-10.16,18.83-9.94,18.99-9.93v.65c-.17,0-15.25-.21-18.38,9.49Z"/>
          <path class="cls-12" d="M845.7,173.45l-.53-.37c6.03-8.81,20.89-4.16,21.04-4.12l-.2.62c-.14-.05-14.54-4.55-20.3,3.86Z"/>
          <path class="cls-12" d="M868.55,174.1c-.13-.08-12.97-7.99-20.63-1.27l-.43-.49c8.02-7.05,21.27,1.12,21.4,1.2l-.34.55Z"/>
        </g>
        <path class="cls-10" d="M842.24,168.57s-11.44,1.19-14.07,5.36c-2.63,4.17,5.3,7.51,9.9,7.93,4.6.42,8.54-1.19,11.88-4.93,3.34-3.74-5.35-8.7-7.71-8.36Z"/>
        <path class="cls-13" d="M837.83,174.23c0,.65-1.6,1.18-3.57,1.18s-3.57-.53-3.57-1.18,1.6-1.18,3.57-1.18,3.57.53,3.57,1.18Z"/>
        <path class="cls-12" d="M827.94,177.6c-3.21.1-15.35,1.08-18.21,9.92l.62.2c2.97-9.19,16.65-9.48,18.2-9.49-.21-.21-.42-.42-.61-.64Z"/>
        <path class="cls-12" d="M829.23,178.85c-3.72.72-14.63,3.57-16.12,12.33l.64.11c1.5-8.84,13.25-11.41,16.16-11.91-.24-.17-.46-.35-.68-.53Z"/>
        <path class="cls-12" d="M829.95,179.4c-4.45,1.63-12.61,5.66-13.09,13.43l.65.04c.47-7.66,8.9-11.56,13.1-13.03-.23-.14-.44-.29-.66-.44Z"/>
      </g>
      <path class="cls-4" d="M526.46,188.46s-33.37,56.54-26.86,83.04c6.51,26.5,36.59,78.49,42.07,106.34,5.48,27.84,23.55,88.67,23.55,88.67,0,0,20.87-8.84,25.18-9.37s-15.46-56.01-23.32-105.64c-7.85-49.63-20.7-91.8-14.74-104.9,5.97-13.1.5-65.98-25.9-58.13Z"/>
      <path class="cls-14" d="M591.25,455.56s29.74-4.33,35.98,8.98c6.24,13.31-17.33,17.75-34.8,16.14s-28.42-6.73-25.9-18.3c2.52-11.57,21.61-9.37,24.72-6.83Z"/>
      <path class="cls-14" d="M562.15,320.87c-14.05-7.42-21.27-6.01-31.8-13.83-5.47-4.06-10.99-1.67-15.48,2.31,10.88,24.14,23.91,50.97,27.34,68.37,5.48,27.84,23.05,89.13,23.05,89.13,0,0,21.37-9.29,25.69-9.83,4.31-.54-15.46-56.01-23.32-105.64-1.67-10.58-3.57-20.81-5.47-30.5Z"/>
      <path class="cls-15" d="M524.77,221.3c-5.94,8.34-16.64,24.69-16.52,33.95l5.95-6.15c-2.24,3.47-5.24,13.7,2.06,42.43,0,0-8.16-35.13,9.01-52.59l-9.53,3.08s4.88-13.1,9.03-20.74Z"/>
      <g>
        <path class="cls-9" d="M600.56,464.74s7.03,7.34,3.6,14.97c0,0,10.26-6.69-3.6-14.97Z"/>
        <path class="cls-9" d="M611.3,463.24s7.03,7.34,3.6,14.97c0,0,10.26-6.69-3.6-14.97Z"/>
        <path class="cls-9" d="M616.95,457.86s9.49,3.49,9.64,11.85c0,0,6.43-10.52-9.64-11.85Z"/>
      </g>
      <path class="cls-16" d="M568.8,233.9l-25.53,24.99s9.92-24.65,25.53-24.99Z"/>
    </g>
  </g>
</svg>